<svg width="20" height="20" viewBox="0 0 20 20" fill="none" xmlns="http://www.w3.org/2000/svg">
<path d="M14.2427 5.09087C15.3443 6.19229 15.9743 7.67894 15.9995 9.23648C16.0248 10.794 15.4433 12.3003 14.378 13.4369L14.2427 13.5769L11.414 16.4049C11.0551 16.7636 10.5733 16.9724 10.0661 16.9891C9.55899 17.0058 9.06445 16.8291 8.6827 16.4949L8.5867 16.4049L5.75737 13.5762C4.63215 12.451 4 10.9248 4 9.33353C4 7.74222 4.63215 6.21609 5.75737 5.09087C6.8826 3.96564 8.40873 3.3335 10 3.3335C11.5913 3.3335 13.1175 3.96564 14.2427 5.09087ZM10 7.33353C9.73739 7.33353 9.47732 7.38526 9.23467 7.48577C8.99202 7.58628 8.77154 7.7336 8.58582 7.91932C8.40011 8.10504 8.25279 8.32552 8.15228 8.56817C8.05177 8.81082 8.00004 9.07089 8.00004 9.33353C8.00004 9.59618 8.05177 9.85625 8.15228 10.0989C8.25279 10.3416 8.40011 10.562 8.58582 10.7477C8.77154 10.9335 8.99202 11.0808 9.23467 11.1813C9.47732 11.2818 9.73739 11.3335 10 11.3335C10.5305 11.3335 11.0392 11.1228 11.4143 10.7477C11.7893 10.3727 12 9.86397 12 9.33353C12 8.8031 11.7893 8.29439 11.4143 7.91932C11.0392 7.54425 10.5305 7.33353 10 7.33353Z" fill="#2B3A4B"/>
</svg>
