<svg width="100" height="100" viewBox="0 0 100 100" fill="none" xmlns="http://www.w3.org/2000/svg">
<path d="M73.9473 50.1667L93.3932 30.8917C94.9682 29.3167 95.8348 27.225 95.8348 25C95.8348 22.775 94.9682 20.6833 93.3932 19.1083L80.8932 6.60834C77.7432 3.45834 72.264 3.45418 69.1015 6.61251L49.8348 26.0542L28.5598 4.77501C28.1691 4.38445 27.6393 4.16504 27.0869 4.16504C26.5345 4.16504 26.0047 4.38445 25.614 4.77501L4.78066 25.6083C4.39009 25.999 4.17069 26.5288 4.17069 27.0813C4.17069 27.6337 4.39009 28.1635 4.78066 28.5542L26.164 49.9375L13.1057 63.1125C12.8571 63.3615 12.6764 63.6699 12.5807 64.0083L4.24733 93.175C4.1459 93.5323 4.14162 93.9102 4.23494 94.2696C4.32826 94.6291 4.51579 94.9572 4.77819 95.22C5.04059 95.4828 5.36836 95.6709 5.72769 95.7648C6.08702 95.8587 6.46489 95.855 6.82233 95.7542L35.989 87.4209C36.3275 87.3251 36.6359 87.1444 36.8848 86.8958L50.0598 73.8375L71.4432 95.2209C71.6364 95.4151 71.8661 95.5694 72.119 95.6748C72.372 95.7802 72.6433 95.8346 72.9173 95.835C73.1913 95.8354 73.4627 95.7817 73.716 95.677C73.9692 95.5724 74.1994 95.4188 74.3932 95.225L95.2265 74.3917C95.6171 74.001 95.8365 73.4712 95.8365 72.9188C95.8365 72.3663 95.6171 71.8365 95.2265 71.4458L73.9473 50.1667Z" fill="#303742"/>
<path d="M27.6531 69.4L24.7781 63.65C24.6049 63.3044 24.339 63.0138 24.0101 62.8107C23.6812 62.6076 23.3022 62.5 22.9156 62.5H19.5781L60.0198 21.6917L67.6906 29.3625L27.6531 69.4ZM36.349 75.2208L30.599 72.3458L70.6365 32.3083L78.3073 39.9792L37.499 80.4208V77.0833C37.4989 76.6967 37.3914 76.3178 37.1883 75.9889C36.9852 75.6599 36.6946 75.394 36.349 75.2208Z" fill="#287AFF"/>
<path opacity="0.1" d="M78.3086 39.975L76.4836 38.15L37.4336 76.85C37.4461 76.9334 37.5003 77 37.5003 77.0834V80.4209L78.3086 39.975Z" fill="black"/>
<path d="M72.0529 9.55419C72.8461 8.79573 73.9012 8.37244 74.9987 8.37244C76.0962 8.37244 77.1513 8.79573 77.9445 9.55419L90.4445 22.0542C91.232 22.8417 91.6654 23.8875 91.6654 25C91.6654 26.1125 91.232 27.1584 90.4487 27.9417L81.2612 37.0459L62.957 18.7334L72.0529 9.55419Z" fill="#508DEF"/>
<path opacity="0.2" d="M23.8531 62.7667L62.3031 23.9709L60.024 21.6917L19.5781 62.5H22.9156C23.2531 62.5 23.5656 62.6167 23.8531 62.7667ZM80.224 11.8334L77.9448 9.55419C77.1516 8.79573 76.0964 8.37244 74.999 8.37244C73.9015 8.37244 72.8463 8.79573 72.0531 9.55419L62.9573 18.7334L65.2365 21.0125L74.3323 11.8334C75.1255 11.0749 76.1807 10.6516 77.2781 10.6516C78.3756 10.6516 79.4308 11.0749 80.224 11.8334Z" fill="white"/>
<path d="M25.862 43.75L32.7203 36.8916C33.0998 36.4987 33.3098 35.9725 33.305 35.4262C33.3003 34.88 33.0812 34.3574 32.6949 33.9712C32.3087 33.5849 31.7861 33.3658 31.2399 33.3611C30.6937 33.3563 30.1674 33.5663 29.7745 33.9458L22.9161 40.8041L17.5286 35.4166L24.387 28.5583C24.7665 28.1654 24.9765 27.6391 24.9717 27.0929C24.967 26.5466 24.7479 26.0241 24.3616 25.6378C23.9753 25.2516 23.4528 25.0325 22.9066 25.0277C22.3603 25.023 21.8341 25.233 21.4411 25.6125L14.5828 32.4708L9.19531 27.0833L27.0828 9.1958L46.8995 29.0125L29.0911 46.9791L25.862 43.75Z" fill="#F2F2F2"/>
<path opacity="0.2" d="M9.19141 27.0833L27.0831 9.1958L28.7581 10.8666L10.8706 28.7541L9.19141 27.0833Z" fill="white"/>
<path opacity="0.1" d="M34.394 35.6167C34.085 35.3204 33.6893 35.1306 33.2648 35.075C33.3278 35.3991 33.3114 35.7335 33.2171 36.0499C33.1228 36.3662 32.9533 36.6551 32.7232 36.8917L25.8607 43.75L27.5357 45.425L34.394 38.5667C34.588 38.3732 34.742 38.1433 34.847 37.8902C34.952 37.6371 35.0061 37.3657 35.0061 37.0917C35.0061 36.8177 34.952 36.5463 34.847 36.2932C34.742 36.0401 34.588 35.8102 34.394 35.6167ZM26.0607 27.2834C25.7516 26.9871 25.356 26.7973 24.9315 26.7417C24.9945 27.0657 24.9781 27.4002 24.8838 27.7166C24.7895 28.0329 24.62 28.3217 24.3898 28.5584L17.5273 35.4167L19.2023 37.0917L26.0607 30.2334C26.2547 30.0398 26.4086 29.8099 26.5136 29.5568C26.6187 29.3037 26.6727 29.0324 26.6727 28.7584C26.6727 28.4843 26.6187 28.213 26.5136 27.9599C26.4086 27.7068 26.2547 27.4769 26.0607 27.2834Z" fill="black"/>
<path d="M72.9156 90.8042L67.5281 85.4167L74.3865 78.5583C74.766 78.1654 74.9759 77.6392 74.9712 77.0929C74.9665 76.5467 74.7473 76.0241 74.3611 75.6379C73.9748 75.2516 73.4523 75.0325 72.906 75.0278C72.3598 75.023 71.8335 75.233 71.4406 75.6125L64.5823 82.4708L59.1948 77.0833L66.0531 70.225C66.4326 69.8321 66.6426 69.3058 66.6379 68.7596C66.6331 68.2133 66.414 67.6908 66.0277 67.3045C65.6415 66.9183 65.119 66.6992 64.5727 66.6944C64.0265 66.6897 63.5002 66.8997 63.1073 67.2792L56.249 74.1375L53.0156 70.9042L70.9823 53.0958L90.799 72.9125L72.9156 90.8042Z" fill="#F2F2F2"/>
<path opacity="0.1" d="M70.9865 53.1L53.0156 70.9041L55.1656 73.0541L73.1323 55.2458L70.9865 53.1Z" fill="black"/>
<path d="M21.6281 66.6666L25.2198 73.85C25.4215 74.254 25.7491 74.5816 26.1531 74.7833L33.3323 78.3708V83.8458L17.3281 88.4166L11.5156 82.8958L16.1531 66.6666H21.6281Z" fill="#3A85FF"/>
<path opacity="0.1" d="M16.4141 87.5458L17.3307 88.4167L33.3349 83.8458V82.1875L16.4141 87.5458Z" fill="black"/>
<path opacity="0.2" d="M9.66406 90.425L11.5182 82.9L14.3141 85.5542L9.66406 90.425Z" fill="white"/>
<path opacity="0.1" d="M76.062 77.2833C75.7529 76.987 75.3573 76.7972 74.9328 76.7417C74.9958 77.0657 74.9794 77.4002 74.8851 77.7165C74.7908 78.0329 74.6213 78.3217 74.3911 78.5583L67.5286 85.4167L69.2036 87.0917L76.062 80.2333C76.4518 79.8414 76.6706 79.3111 76.6706 78.7583C76.6706 78.2056 76.4518 77.6753 76.062 77.2833ZM67.7286 68.95C67.4196 68.6537 67.024 68.4639 66.5995 68.4083C66.6625 68.7324 66.6461 69.0668 66.5518 69.3832C66.4574 69.6995 66.288 69.9884 66.0578 70.225L59.1953 77.0833L60.8703 78.7583L67.7286 71.9C68.1184 71.5081 68.3373 70.9778 68.3373 70.425C68.3373 69.8722 68.1184 69.3419 67.7286 68.95Z" fill="black"/>
<path d="M73.9473 50.1667L93.3932 30.8917C94.9682 29.3167 95.8348 27.225 95.8348 25C95.8348 22.775 94.9682 20.6833 93.3932 19.1083L80.8932 6.60834C77.7432 3.45834 72.264 3.45418 69.1015 6.61251L49.8348 26.0542L28.5598 4.77501C28.1691 4.38445 27.6393 4.16504 27.0869 4.16504C26.5345 4.16504 26.0047 4.38445 25.614 4.77501L4.78066 25.6083C4.39009 25.999 4.17069 26.5288 4.17069 27.0813C4.17069 27.6337 4.39009 28.1635 4.78066 28.5542L26.164 49.9375L13.1057 63.1125C12.8571 63.3615 12.6764 63.6699 12.5807 64.0083L4.24733 93.175C4.1459 93.5323 4.14162 93.9102 4.23494 94.2696C4.32826 94.6291 4.51579 94.9572 4.77819 95.22C5.04059 95.4828 5.36836 95.6709 5.72769 95.7648C6.08702 95.8587 6.46489 95.855 6.82233 95.7542L35.989 87.4209C36.3275 87.3251 36.6359 87.1444 36.8848 86.8958L50.0598 73.8375L71.4432 95.2209C71.6364 95.4151 71.8661 95.5694 72.119 95.6748C72.372 95.7802 72.6433 95.8346 72.9173 95.835C73.1913 95.8354 73.4627 95.7817 73.716 95.677C73.9692 95.5724 74.1994 95.4188 74.3932 95.225L95.2265 74.3917C95.6171 74.001 95.8365 73.4712 95.8365 72.9188C95.8365 72.3663 95.6171 71.8365 95.2265 71.4458L73.9473 50.1667Z" fill="url(#paint0_linear_4687_7351)"/>
<defs>
<linearGradient id="paint0_linear_4687_7351" x1="1.84316" y1="31.6083" x2="95.0473" y2="75.0708" gradientUnits="userSpaceOnUse">
<stop stop-color="white" stop-opacity="0.2"/>
<stop offset="1" stop-color="white" stop-opacity="0"/>
</linearGradient>
</defs>
</svg>
