<svg width="100" height="100" viewBox="0 0 100 100" fill="none" xmlns="http://www.w3.org/2000/svg">
<path d="M46.5625 11.0938V2.5C31.875 3.90625 19.0625 12.0312 11.25 23.75C9.84375 25.7812 8.59375 28.125 7.5 30.3125C5.15625 35.3125 3.75 40.7812 3.28125 46.5625H3.125V53.75H3.28125C3.75 59.5313 5.15625 65 7.5 70C8.59375 72.3438 9.84375 74.5313 11.25 76.5625C19.0625 88.2813 31.875 96.25 46.5625 97.6563V89.0625C43.5937 87.3438 40.7813 84.0625 38.4375 79.5313C37.1875 77.0313 35.9375 74.2188 35.1562 71.0938C38.9063 70.625 42.6562 70.3125 46.7187 70.1563V62.6562C42.1875 62.8125 37.8125 63.125 33.4375 63.5938C32.8125 60.3125 32.5 57.0313 32.3438 53.4375H46.7187V46.25H32.3438C32.5 42.8125 32.8125 39.375 33.4375 36.0938C37.6562 36.5625 42.1875 37.0313 46.7187 37.0313V29.5312C42.8125 29.375 38.9063 29.0625 35.1562 28.5937C36.0938 25.625 37.1875 22.6562 38.4375 20.1562C40.7813 16.0937 43.5937 12.8125 46.5625 11.0938ZM14.6875 32.8125C18.2812 33.9062 22.0313 34.6875 25.9375 35.4688C25.3125 39.0625 24.8438 42.8125 24.6875 46.7187H10.7813C11.25 41.7187 12.6562 37.0312 14.6875 32.8125ZM14.6875 67.6563C12.6562 63.4375 11.25 58.75 10.7813 53.75H24.6875C24.8438 57.6563 25.3125 61.4063 25.9375 65C22.0313 65.7812 18.2812 66.7188 14.6875 67.6563ZM33.9063 86.7188C27.9688 83.9063 22.6562 79.5312 18.75 74.375C21.5625 73.5938 24.5313 72.9688 27.6563 72.3438C29.2188 77.9688 31.25 82.8125 33.9063 86.7188ZM27.6563 27.9687C24.5313 27.3437 21.5625 26.7188 18.75 25.9375C22.6562 20.625 27.9688 16.4062 33.9063 13.5937C31.25 17.6562 29.2188 22.5 27.6563 27.9687Z" fill="#3A85FF"/>
<path d="M90.1562 52.6563C89.8437 47.1875 90.9375 41.875 93.125 37.9687C93.9062 36.7187 94.8437 35.4688 95.7812 34.5313C96.25 34.0625 96.875 33.4375 96.7188 32.3438C96.7188 31.875 96.5625 31.5625 96.25 31.0937C94.5312 27.8125 92.6562 24.6875 90.9375 21.7187C90.3125 20.4687 89.375 20.1562 88.125 20.3125C82.1875 21.4062 76.5625 20.3125 71.0937 17.0312C65.625 13.5937 62.1875 9.53125 60.625 4.375C60.1562 2.96875 59.2187 2.34375 57.8125 2.34375H52.1875V23.4375C57.1875 23.4375 62.0312 25 66.4062 27.6563C78.4375 35.3125 82.1875 50.9375 75 63.5938C72.3437 67.9688 68.5937 71.5625 64.0625 73.75C60.3125 75.625 56.25 76.5625 52.3437 76.7187V97.8125H57.0312C57.3437 97.8125 57.9687 97.8125 58.4375 97.5C58.75 97.3438 59.0625 97.0313 59.375 96.7188C59.5312 96.4063 59.6875 96.0937 59.6875 95.7812C60 94.375 60.625 93.125 61.4062 91.7188C63.75 87.8125 67.9687 84.2187 72.8125 82.0312C77.8125 79.6875 82.9687 79.0625 87.0312 80.1562C87.6562 80.3125 88.5937 80.4687 89.375 80.1562C90 79.8437 90.3125 79.375 90.7812 78.5937C91.7187 77.0312 92.6562 75.4687 93.2812 74.375C93.9062 73.2812 94.8437 71.7188 95.7812 70.1563C97.0312 68.125 96.0937 66.875 95.3125 66.0937C92.5 62.9687 90.625 58.125 90.1562 52.6563Z" fill="#2D3A50"/>
</svg>
