<svg width="100" height="100" viewBox="0 0 100 100" fill="none" xmlns="http://www.w3.org/2000/svg">
<g clip-path="url(#clip0_4687_7331)">
<path d="M2.08984 35.4166V97.9166H20.8398V89.5833H27.0898C28.7474 89.5833 30.3372 88.9248 31.5093 87.7527C32.6814 86.5806 33.3398 84.9909 33.3398 83.3333V75H39.5898L33.3398 60.4166V58.3333C33.3398 52.2554 30.9254 46.4265 26.6277 42.1288C22.33 37.8311 16.5011 35.4166 10.4232 35.4166H2.08984Z" fill="#3A85FF"/>
<path d="M97.9176 33.3333H89.5842C82.9538 33.3333 76.595 35.9672 71.9066 40.6556C67.2182 45.344 64.5842 51.7028 64.5842 58.3333V59.9791L58.5009 74.1874C58.3668 74.5041 58.3132 74.849 58.3448 75.1914C58.3764 75.5338 58.4922 75.863 58.682 76.1498C58.8718 76.4365 59.1296 76.6718 59.4324 76.8347C59.7353 76.9976 60.0737 77.083 60.4176 77.0833H64.5842V83.3333C64.5842 85.5434 65.4622 87.663 67.025 89.2258C68.5878 90.7886 70.7074 91.6666 72.9176 91.6666H77.0842V97.9166C77.0842 98.4691 77.3037 98.999 77.6944 99.3897C78.0851 99.7804 78.615 99.9999 79.1676 99.9999H97.9176C98.4701 99.9999 99 99.7804 99.3907 99.3897C99.7814 98.999 100.001 98.4691 100.001 97.9166V35.4166C100.001 34.8641 99.7814 34.3341 99.3907 33.9434C99 33.5527 98.4701 33.3333 97.9176 33.3333Z" fill="#5997FC"/>
<path d="M20.8372 99.9999H2.08724C1.53471 99.9999 1.0048 99.7804 0.6141 99.3897C0.2234 98.999 0.00390625 98.4691 0.00390625 97.9166V35.4166C0.00390625 34.8641 0.2234 34.3341 0.6141 33.9434C1.0048 33.5527 1.53471 33.3333 2.08724 33.3333H10.4206C17.051 33.3333 23.4098 35.9672 28.0982 40.6556C32.7866 45.344 35.4206 51.7028 35.4206 58.3333V59.9791L41.5039 74.1874C41.638 74.5041 41.6917 74.849 41.6601 75.1914C41.6285 75.5338 41.5126 75.863 41.3228 76.1498C41.133 76.4365 40.8752 76.6718 40.5724 76.8347C40.2695 76.9976 39.9311 77.083 39.5872 77.0833H35.4206V83.3333C35.4206 85.5434 34.5426 87.663 32.9798 89.2258C31.417 90.7886 29.2974 91.6666 27.0872 91.6666H22.9206V97.9166C22.9206 98.4691 22.7011 98.999 22.3104 99.3897C21.9197 99.7804 21.3898 99.9999 20.8372 99.9999ZM4.17057 95.8333H18.7539V89.5833C18.7539 89.0307 18.9734 88.5008 19.3641 88.1101C19.7548 87.7194 20.2847 87.4999 20.8372 87.4999H27.0872C28.1923 87.4999 29.2521 87.0609 30.0335 86.2795C30.8149 85.4981 31.2539 84.4383 31.2539 83.3333V74.9999C31.2539 74.4474 31.4734 73.9175 31.8641 73.5268C32.2548 73.1361 32.7847 72.9166 33.3372 72.9166H36.4206C30.4622 59.0208 31.2539 61.6874 31.2539 58.3333C31.2539 52.8079 29.059 47.5089 25.152 43.6019C21.245 39.6949 15.9459 37.4999 10.4206 37.4999H4.17057V95.8333Z" fill="#424242"/>
<path d="M56.2552 16.6666C52.6302 16.6666 52.0885 18.7499 50.0052 18.7499C49.284 18.768 48.5808 18.5237 48.026 18.0624C46.796 17.1377 45.294 16.6468 43.7552 16.6666C43.2027 16.6666 42.6728 16.8861 42.2821 17.2768C41.8914 17.6675 41.6719 18.1974 41.6719 18.7499C41.6719 19.3025 41.8914 19.8324 42.2821 20.2231C42.6728 20.6138 43.2027 20.8333 43.7552 20.8333C44.1094 20.8333 43.7552 19.3333 45.8385 35.6666C45.9048 36.2191 46.1879 36.7227 46.6255 37.0665C47.0631 37.4103 47.6193 37.5662 48.1719 37.4999C48.7244 37.4336 49.228 37.1505 49.5718 36.713C49.9156 36.2754 50.0715 35.7191 50.0052 35.1666L48.4635 22.6666C49.4937 22.8854 50.5584 22.8854 51.5885 22.6666L50.0469 35.1666C49.9806 35.7191 50.1365 36.2754 50.4803 36.713C50.8241 37.1505 51.3277 37.4336 51.8802 37.4999C52.4327 37.5662 52.989 37.4103 53.4266 37.0665C53.8642 36.7227 54.1472 36.2191 54.2135 35.6666C56.2969 19.3333 55.9635 20.8333 56.2969 20.8333C56.8494 20.8333 57.3793 20.6138 57.77 20.2231C58.1607 19.8324 58.3802 19.3025 58.3802 18.7499C58.3802 18.1974 58.1607 17.6675 57.77 17.2768C57.3793 16.8861 56.8494 16.6666 56.2969 16.6666H56.2552Z" fill="#3A85FF"/>
<path d="M50.2109 -4.05363e-05C48.0048 -0.0276198 45.8151 0.383113 43.7689 1.20834C41.7227 2.03356 39.8607 3.25684 38.2909 4.80724C36.7211 6.35764 35.4748 8.20429 34.6242 10.2401C33.7737 12.2759 33.3358 14.4603 33.3359 16.6666C33.3359 24.125 37.2318 25.5 39.1484 33.3333C38.5959 33.3913 38.089 33.6664 37.7394 34.0982C37.3897 34.5299 37.2258 35.0828 37.2839 35.6354C37.3419 36.1879 37.617 36.6948 38.0487 37.0444C38.4805 37.3941 39.0334 37.558 39.5859 37.5V41.6666C39.0334 41.6666 38.5035 41.8861 38.1128 42.2768C37.7221 42.6675 37.5026 43.1974 37.5026 43.75C37.5026 44.3025 37.7221 44.8324 38.1128 45.2231C38.5035 45.6138 39.0334 45.8333 39.5859 45.8333H42.1276L43.4193 51C43.6426 51.9033 44.1619 52.7059 44.8944 53.2798C45.6269 53.8537 46.5304 54.1659 47.4609 54.1666H52.5443C53.4748 54.1659 54.3783 53.8537 55.1108 53.2798C55.8433 52.7059 56.3626 51.9033 56.5859 51L57.8776 45.8333H60.4193C60.9718 45.8333 61.5017 45.6138 61.8924 45.2231C62.2831 44.8324 62.5026 44.3025 62.5026 43.75C62.5026 43.1974 62.2831 42.6675 61.8924 42.2768C61.5017 41.8861 60.9718 41.6666 60.4193 41.6666V37.5C60.9718 37.558 61.5248 37.3941 61.9565 37.0444C62.3882 36.6948 62.6633 36.1879 62.7214 35.6354C62.7794 35.0828 62.6155 34.5299 62.2658 34.0982C61.9162 33.6664 61.4093 33.3913 60.8568 33.3333C61.6022 30.3968 62.7819 27.5881 64.3568 25C65.808 22.4874 66.5781 19.6395 66.5909 16.7379C66.6038 13.8364 65.8589 10.9818 64.43 8.45644C63.0011 5.93111 60.9376 3.82258 58.4438 2.33941C55.9499 0.856244 53.1121 0.0498376 50.2109 -4.05363e-05ZM52.5443 50H47.4609L46.4193 45.8333H53.5859L52.5443 50ZM43.7526 41.6666V37.5H56.2526V41.6666H43.7526ZM60.7734 22.9166C58.8142 26.1326 57.4059 29.6533 56.6068 33.3333H43.4193C41.5443 24.2916 37.5026 22.9166 37.5026 16.6666C37.4883 14.7409 37.9191 12.8379 38.7615 11.1061C39.6039 9.37427 40.835 7.86053 42.3589 6.68295C43.8827 5.50538 45.658 4.69582 47.5463 4.31743C49.4345 3.93905 51.3847 4.00208 53.2446 4.5016C55.1045 5.00112 56.8238 5.92363 58.2684 7.19715C59.713 8.47066 60.8438 10.0607 61.5726 11.8433C62.3014 13.6259 62.6085 15.5528 62.4698 17.4736C62.3312 19.3944 61.7506 21.2572 60.7734 22.9166ZM29.1693 16.6666C29.1693 16.1141 28.9498 15.5842 28.5591 15.1935C28.1684 14.8028 27.6385 14.5833 27.0859 14.5833H22.9193C22.3667 14.5833 21.8368 14.8028 21.4461 15.1935C21.0554 15.5842 20.8359 16.1141 20.8359 16.6666C20.8359 17.2192 21.0554 17.7491 21.4461 18.1398C21.8368 18.5305 22.3667 18.75 22.9193 18.75H27.0859C27.6385 18.75 28.1684 18.5305 28.5591 18.1398C28.9498 17.7491 29.1693 17.2192 29.1693 16.6666ZM29.1693 26.3125L25.5651 28.3958C25.0844 28.6721 24.7331 29.128 24.5886 29.6632C24.444 30.1985 24.518 30.7693 24.7943 31.25C25.0705 31.7307 25.5264 32.0819 26.0617 32.2265C26.597 32.3711 27.1677 32.2971 27.6484 32.0208L31.2526 29.9375C31.4906 29.8007 31.6994 29.6183 31.8669 29.4009C32.0345 29.1834 32.1576 28.9351 32.2291 28.67C32.3007 28.405 32.3194 28.1284 32.2841 27.8562C32.2488 27.5839 32.1602 27.3213 32.0234 27.0833C31.8866 26.8453 31.7043 26.6365 31.4868 26.469C31.2694 26.3014 31.021 26.1783 30.756 26.1068C30.491 26.0352 30.2144 26.0165 29.9422 26.0518C29.6699 26.0871 29.4073 26.1757 29.1693 26.3125ZM31.2526 3.39579L27.6484 1.31246C27.1677 1.03619 26.597 0.9622 26.0617 1.10676C25.5264 1.25132 25.0705 1.60259 24.7943 2.08329C24.518 2.564 24.444 3.13476 24.5886 3.67002C24.7331 4.20528 25.0844 4.66119 25.5651 4.93746L29.1693 7.02079C29.4073 7.15759 29.6699 7.24616 29.9422 7.28145C30.2144 7.31675 30.491 7.29807 30.756 7.22649C31.021 7.15491 31.2694 7.03184 31.4868 6.86428C31.7043 6.69673 31.8866 6.48798 32.0234 6.24996C32.1602 6.01194 32.2488 5.7493 32.2841 5.47705C32.3194 5.2048 32.3007 4.92826 32.2291 4.66323C32.1576 4.3982 32.0345 4.14986 31.8669 3.93239C31.6994 3.71492 31.4906 3.53259 31.2526 3.39579ZM77.0859 14.5833H72.9193C72.3667 14.5833 71.8368 14.8028 71.4461 15.1935C71.0554 15.5842 70.8359 16.1141 70.8359 16.6666C70.8359 17.2192 71.0554 17.7491 71.4461 18.1398C71.8368 18.5305 72.3667 18.75 72.9193 18.75H77.0859C77.6385 18.75 78.1684 18.5305 78.5591 18.1398C78.9498 17.7491 79.1693 17.2192 79.1693 16.6666C79.1693 16.1141 78.9498 15.5842 78.5591 15.1935C78.1684 14.8028 77.6385 14.5833 77.0859 14.5833ZM74.5026 28.3958L70.8984 26.3125C70.6604 26.1757 70.3978 26.0871 70.1255 26.0518C69.8533 26.0165 69.5767 26.0352 69.3117 26.1068C69.0467 26.1783 68.7983 26.3014 68.5809 26.469C68.3634 26.6365 68.1811 26.8453 68.0443 27.0833C67.9075 27.3213 67.8189 27.5839 67.7836 27.8562C67.7483 28.1284 67.767 28.405 67.8386 28.67C67.9102 28.9351 68.0332 29.1834 68.2008 29.4009C68.3683 29.6183 68.5771 29.8007 68.8151 29.9375L72.4193 32.0208C72.9 32.2971 73.4707 32.3711 74.006 32.2265C74.5413 32.0819 74.9972 31.7307 75.2734 31.25C75.5497 30.7693 75.6237 30.1985 75.4791 29.6632C75.3346 29.128 74.9833 28.6721 74.5026 28.3958ZM69.8568 7.29163C70.5859 7.29163 70.6276 7.16663 74.5026 4.93746C74.9833 4.66119 75.3346 4.20528 75.4791 3.67002C75.6237 3.13476 75.5497 2.564 75.2734 2.08329C74.9972 1.60259 74.5413 1.25132 74.006 1.10676C73.4707 0.9622 72.9 1.03619 72.4193 1.31246L68.7526 3.39579C68.3459 3.62551 68.0281 3.98526 67.8504 4.41727C67.6727 4.84928 67.6453 5.32847 67.7727 5.7779C67.9001 6.22733 68.1748 6.62091 68.5528 6.89543C68.9307 7.16996 69.39 7.30949 69.8568 7.29163Z" fill="#424242"/>
</g>
<defs>
<clipPath id="clip0_4687_7331">
<rect width="100" height="100" fill="white"/>
</clipPath>
</defs>
</svg>
