<svg width="100" height="100" viewBox="0 0 100 100" fill="none" xmlns="http://www.w3.org/2000/svg">
<path d="M8.75124 68.2657C7.01428 70.0055 5.76575 72.1718 5.13109 74.547C4.49644 76.9221 4.498 79.4224 5.13562 81.7968L13.695 73.2343L21.1325 75.7154L23.6075 83.1529L15.0512 91.7093C17.4257 92.3456 19.9257 92.3465 22.3006 91.712C24.6756 91.0774 26.8419 89.8296 28.5825 88.0937C32.2387 84.4312 33.395 79.2657 32.1606 74.5969L74.5669 32.1905C79.2356 33.4248 84.4012 32.2686 88.0637 28.6092C89.801 26.8695 91.0497 24.7032 91.6844 22.3279C92.319 19.9527 92.3173 17.4525 91.6794 15.0781L83.12 23.6406L75.6825 21.1595L73.2075 13.725L81.7637 5.16563C79.3894 4.52704 76.8888 4.52501 74.5135 5.15971C72.1381 5.79442 69.9718 7.04342 68.2325 8.7812C64.5762 12.4437 63.42 17.6092 64.6544 22.281L22.2481 64.6814C17.5794 63.447 12.4137 64.6094 8.75124 68.2657Z" fill="#3A85FF" stroke="black" stroke-miterlimit="0" stroke-linecap="round" stroke-linejoin="round"/>
<path d="M55.893 40.1655L92.6586 76.9312C93.004 77.2755 93.2781 77.6847 93.4651 78.1351C93.6521 78.5856 93.7484 79.0684 93.7484 79.5561C93.7484 80.0438 93.6521 80.527 93.4651 80.9775C93.2781 81.4279 93.004 81.8371 92.6586 82.1814L82.1555 92.6874C81.8111 93.0334 81.4018 93.3081 80.951 93.4954C80.5003 93.6827 80.017 93.7788 79.5289 93.7788C79.0408 93.7788 78.5575 93.6827 78.1067 93.4954C77.656 93.3081 77.2467 93.0334 76.9023 92.6874L40.1367 55.9218C39.7913 55.5775 39.5172 55.1683 39.3302 54.7178C39.1431 54.2674 39.0469 53.7846 39.0469 53.2969C39.0469 52.8091 39.1431 52.3264 39.3302 51.8759C39.5172 51.4254 39.7913 51.0163 40.1367 50.672L50.6429 40.1655C50.9873 39.8201 51.3964 39.5461 51.8468 39.3591C52.2973 39.1721 52.7802 39.0757 53.268 39.0757C53.7557 39.0757 54.2386 39.1721 54.6891 39.3591C55.1395 39.5461 55.5486 39.8201 55.893 40.1655Z" fill="#4E8FF8"/>
<path d="M50.6437 45.4187L87.4062 82.1812M45.3906 50.6687L82.1563 87.4374" stroke="black"/>
<path d="M48.0156 37.5405C48.3611 37.8849 48.6351 38.294 48.8222 38.7445C49.0092 39.1949 49.1054 39.6777 49.1054 40.1654C49.1054 40.6532 49.0092 41.1363 48.8222 41.5868C48.6351 42.0372 48.3611 42.4464 48.0156 42.7907L42.7656 48.0435C42.4213 48.389 42.0122 48.6633 41.5617 48.8504C41.1113 49.0374 40.6283 49.1334 40.1406 49.1334C39.6529 49.1334 39.1699 49.0374 38.7195 48.8504C38.269 48.6633 37.8599 48.389 37.5156 48.0435C37.1702 47.6992 36.8961 47.2901 36.7091 46.8396C36.522 46.3892 36.4258 45.9064 36.4258 45.4187C36.4258 44.9309 36.522 44.4481 36.7091 43.9977C36.8961 43.5472 37.1702 43.1381 37.5156 42.7938L42.7656 37.5405C43.1099 37.1951 43.519 36.9211 43.9695 36.7341C44.4199 36.5471 44.9029 36.4507 45.3906 36.4507C45.8783 36.4507 46.3613 36.5471 46.8117 36.7341C47.2622 36.9211 47.6713 37.1951 48.0156 37.5405Z" fill="#4E8FF8"/>
<path d="M4.6875 9.96867L9.9375 4.71545L19.1313 11.2781L19.7875 15.875L17.8188 17.8437L15.85 19.8125L11.2531 19.156L4.6875 9.96867Z" stroke="black" stroke-miterlimit="0" stroke-linecap="square" stroke-linejoin="round"/>
<path d="M17.5352 17.5625L40.1383 40.1656" stroke="black"/>
<path d="M48.0156 37.5406L53.2687 42.7908L42.7656 53.2969L37.5156 48.0471L48.0156 37.5406Z" fill="#4E8FF8"/>
</svg>
