<svg width="100" height="100" viewBox="0 0 100 100" fill="none" xmlns="http://www.w3.org/2000/svg">
<path d="M90.3125 28.125V15.3125C90.3125 8.28125 85.3125 3.28125 78.2812 3.28125L21.5625 3.125C18.125 3.125 15.1563 4.375 12.9688 6.5625C10.7813 8.75 9.53125 11.875 9.53125 15.1562V84.8437C9.53125 91.5625 14.5313 96.7188 21.25 96.7188H63.5938C66.0938 96.7188 68.4375 95.7813 70.1563 94.0625C76.0938 88.2813 82.0313 82.3438 87.9688 76.5625C89.5313 75 90.3125 73.2812 90.3125 71.0938V28.125ZM21.4062 93.125C16.7187 93.125 13.2813 89.8438 13.2813 85V15.3125C13.2813 12.8125 14.0625 10.625 15.625 9.21875C17.1875 7.65625 19.2188 6.875 21.5625 6.875H78.2812C83.2813 6.875 86.5625 10.1562 86.5625 15.1562V70.1563H72.6563C67.3438 70.1563 64.2188 73.2812 64.2188 78.5937V93.125H21.4062ZM68.125 90.9375V78.4375C68.125 75.1563 69.5313 73.9062 72.8125 73.9062H85.625C79.6875 79.5312 73.9063 85.3125 68.125 90.9375Z" fill="#2D3A50"/>
<path d="M63.5938 53.2812L59.8437 55.1562L57.9687 51.4063C57.6562 50.7813 57.3438 50.4688 56.875 50.3125C56.0938 50 55.1563 50.3125 54.6875 51.0938C54.375 51.5625 54.375 52.3438 54.6875 52.9688L55.1562 53.9063C55.3125 54.375 55.625 54.8438 55.9375 55.3125L56.5625 56.7187C56.4063 56.7187 56.25 56.875 56.25 56.875L54.6875 57.6563L52.8125 58.5938C52.3437 58.9063 51.7187 59.2188 51.7187 60.1563C51.7187 60.7813 51.875 61.25 52.1875 61.5625C52.6563 62.1875 53.4375 62.3437 54.375 61.875C54.8437 61.7187 55.3125 61.4063 55.7813 61.25L58.2812 60L60.1563 63.75C60.4688 64.375 61.0937 64.8437 61.875 64.8437C62.1875 64.8437 62.3437 64.8437 62.6562 64.6875C63.125 64.5312 63.4375 64.2187 63.5938 63.75C63.75 63.2812 63.75 62.6562 63.4375 62.1875C63.2812 61.875 63.125 61.5625 62.9687 61.0937L61.5625 58.2812L62.6562 57.8125C63.5937 57.3438 64.5312 57.0312 65.3125 56.4062C65.9375 56.0937 66.25 55.4687 66.4063 54.8437C66.4063 54.2187 66.0938 53.75 65.625 53.2812C65 52.8125 64.2188 52.9687 63.5938 53.2812ZM46.875 24.2187C47.3438 24.0625 47.8125 23.75 48.2812 23.5937L50.7813 22.3437L52.6563 26.0938C52.9688 26.7188 53.5937 27.1875 54.375 27.1875C54.6875 27.1875 54.8437 27.1875 55.1562 27.0312C55.625 26.875 55.9375 26.5625 56.0938 26.0938C56.25 25.625 56.25 25 55.9375 24.5312C55.7812 24.2187 55.625 23.75 55.4688 23.4375L54.0625 20.625L55.1562 20.1562C56.0937 19.6875 57.0312 19.375 57.9687 18.75C58.5937 18.4375 58.9062 17.8125 59.0625 17.1875C59.0625 16.5625 58.75 16.0937 58.2812 15.625C57.8125 15.625 57.5 15.3125 57.0313 15.3125C56.7188 15.3125 56.4063 15.4687 56.0938 15.625L52.3438 17.5L50.4687 13.75C50.1562 13.125 49.8438 12.8125 49.375 12.6563C48.5938 12.3438 47.6563 12.6563 47.1875 13.4375C46.875 14.0625 46.875 14.6875 47.1875 15.3125L47.6563 16.0937C47.8125 16.5625 48.125 17.0312 48.2812 17.6562L49.0625 19.0625C48.9062 19.0625 48.75 19.2187 48.75 19.2187L47.3437 19.8437L45.4688 20.7812C45 21.0937 44.375 21.4062 44.375 22.1875C44.375 22.8125 44.5313 23.2812 44.8438 23.5937C45.1563 24.375 45.9375 24.5312 46.875 24.2187Z" fill="#3A85FF"/>
<path d="M77.5 32.0312C76.5625 31.0937 75.1562 30.4688 73.75 30.4688C71.7188 30.4688 70 31.7187 69.2187 33.4375H67.9687C65.7812 33.2812 63.5938 32.9688 61.25 32.9688C55.9375 32.9688 52.0312 34.2188 48.9062 36.875C45.4687 39.8438 43.75 43.9063 42.1875 47.8125C41.4063 49.8438 40.4687 51.875 39.5312 53.5937C36.875 58.125 33.125 61.4063 28.9063 63.125L30.3125 57.9687C30.625 56.875 30 55.9375 28.9063 55.625C27.8125 55.4687 26.875 56.0937 26.5625 57.0312L24.375 65.3125C24.0625 66.25 24.2188 67.1875 24.6875 67.9688C25.1563 68.75 25.9375 69.375 26.875 69.6875L35.3125 72.0312C35.4688 72.0312 35.625 72.1875 35.9375 72.1875C36.7188 72.1875 37.5 71.5625 37.8125 70.7812C37.9688 70.3125 37.8125 69.6875 37.6563 69.2187C37.3438 68.75 37.0312 68.4375 36.5625 68.2813L30.9375 66.7188C35.9375 64.6875 40 60.7813 43.125 55.7813C44.2188 53.9063 45.1562 51.7187 46.0937 49.6875V49.5313C47.6562 45.7813 49.0625 42.3438 51.7187 40C54.0625 37.9688 57.1875 37.0313 61.5625 37.0313C63.5938 37.0313 65.7812 37.1875 67.9687 37.5C68.4375 37.5 68.9063 37.6563 69.375 37.6563C69.6875 38.75 70.4687 39.5313 71.25 40.1563C72.1875 40.7813 73.2812 41.0937 74.375 41.0937C75.7812 41.0937 77.0313 40.4687 77.9688 39.5312C78.9063 38.5937 79.375 37.1875 79.375 35.7812C79.0625 34.2187 78.4375 32.9688 77.5 32.0312ZM76.0938 35.625C76.0938 36.25 75.9375 36.875 75.4687 37.3437C75 37.8125 74.5312 38.125 73.9062 38.125C73.2812 38.125 72.6563 37.8125 72.1875 37.5C71.7187 37.0312 71.5625 36.5625 71.5625 35.9375C71.5625 35.3125 71.875 34.6875 72.3437 34.2187C72.8125 33.9062 73.2812 33.5938 73.9062 33.5938C75.1562 33.4375 76.0938 34.375 76.0938 35.625ZM34.6875 39.6875C34.6875 35.4687 31.25 31.875 26.875 31.875C22.6563 31.875 19.0625 35.3125 19.0625 39.6875C19.0625 43.9062 22.5 47.5 26.875 47.5C31.0938 47.3437 34.6875 43.9062 34.6875 39.6875ZM26.875 35.625C29.0625 35.625 30.9375 37.3437 30.9375 39.6875C30.9375 41.875 29.2188 43.75 26.875 43.75C24.6875 43.75 22.8125 42.0312 22.8125 39.6875C22.8125 37.5 24.6875 35.625 26.875 35.625Z" fill="#3A85FF"/>
</svg>
