<svg width="50" height="50" viewBox="0 0 50 50" fill="none" xmlns="http://www.w3.org/2000/svg">
<path d="M21.9247 17.3276C21.2797 17.507 20.8291 18.1001 20.8291 18.7708C20.8291 19.4414 21.2791 20.0339 21.9166 20.2114C22.0491 20.2501 22.1872 20.2701 22.3285 20.2701C22.5497 20.2701 22.7697 20.2214 22.9572 20.132C23.486 19.8876 23.8279 19.3533 23.8279 18.7714C23.8279 18.1895 23.4866 17.6551 22.9622 17.4126C22.6429 17.2608 22.2347 17.2345 21.9247 17.3276ZM22.6166 18.7708C22.6166 18.8826 22.551 18.9851 22.4422 19.0351C22.391 19.0595 22.3266 19.0701 22.2497 19.047C22.1454 19.0183 22.0404 18.9208 22.0404 18.7708C22.0404 18.6208 22.1454 18.5233 22.2597 18.4914C22.271 18.4883 22.2947 18.4826 22.3285 18.4826C22.371 18.4826 22.411 18.4908 22.4485 18.5089C22.5297 18.547 22.6166 18.6345 22.6166 18.7708Z" fill="black"/>
<path d="M36.0823 18.7539C31.9491 12.0714 22.8254 14.1839 22.7348 14.2058C22.6785 14.2195 22.6279 14.2445 22.5791 14.2726V11.507C22.5791 11.1726 22.3079 10.9014 21.9735 10.9014H21.5185V8.83889C22.2854 8.71076 22.8729 8.04764 22.8729 7.24514C22.8729 6.35201 22.146 5.62451 21.2523 5.62451H18.4879C17.5948 5.62451 16.8673 6.35139 16.8673 7.24514C16.8673 8.04764 17.4554 8.71076 18.2216 8.83889V10.9014H17.7666C17.4323 10.9014 17.161 11.1726 17.161 11.507V24.9076C17.161 25.242 17.4323 25.5133 17.7666 25.5133H18.2216V26.4314C18.2216 27.0995 18.7648 27.6426 19.4329 27.6426H20.3073C20.9754 27.6426 21.5185 27.0995 21.5185 26.4314V25.5133H21.9735C22.3079 25.5133 22.5791 25.242 22.5791 24.9076V23.3545C22.6685 23.4064 22.766 23.4439 22.8766 23.4439H25.8654C26.0973 23.4439 26.3091 23.3114 26.4104 23.102L27.9354 19.9489C29.9873 20.5176 31.3648 21.6476 32.0335 23.317C32.5041 24.4695 32.5273 25.8445 32.0998 27.1895C30.5091 32.2239 25.7179 32.4901 25.5398 32.4983H15.4766C14.626 32.4983 13.9598 33.1645 13.9598 34.0151C13.9598 34.3926 14.1066 34.757 14.3798 35.0495C14.6685 35.3489 15.0685 35.5208 15.4766 35.5208H20.0179C20.2873 36.5295 21.2004 37.2789 22.2923 37.2789H22.756L21.5935 39.2914H13.3491C12.6623 39.2914 12.1035 39.8501 12.1035 40.5364V41.3745C12.1035 42.0614 12.6623 42.6201 13.3835 42.6545V43.1295C13.3835 43.8164 13.9423 44.3751 14.6291 44.3751H17.1266C17.8135 44.3751 18.3723 43.8164 18.3723 43.1295L18.4066 42.6201L27.526 42.6545V43.1295C27.526 43.8164 28.0848 44.3751 28.7716 44.3751H31.2735C31.9598 44.3751 32.5185 43.8164 32.5185 43.1295L32.5529 42.6201H33.0404C33.7273 42.6201 34.286 42.0614 34.286 41.3745V40.5364C34.286 39.8495 33.7273 39.2914 33.0404 39.2914H32.9648C32.9504 39.2751 32.9404 39.2558 32.9248 39.2408L29.4385 35.9595C30.8016 35.4776 32.0473 34.8308 33.1398 34.0133C37.8916 30.4814 39.1841 23.7795 36.0816 18.7545L36.0823 18.7539ZM33.041 41.4089H32.5535C31.8666 41.4089 31.3079 41.9676 31.3079 42.6545L31.2735 43.1645L28.7373 43.1301V42.6551C28.7373 41.9683 28.1785 41.4095 27.4916 41.4095H18.4066C17.7198 41.4095 17.1616 41.9683 17.1616 42.6551L17.1273 43.1651L14.5954 43.1308V42.6558C14.5954 41.9689 14.0366 41.4101 13.3154 41.3758L13.3498 40.5033H33.0416C33.061 40.5033 33.076 40.5189 33.076 40.5376L33.0416 41.4101L33.041 41.4089ZM23.6835 17.2301C23.6873 17.2339 23.6904 17.2383 23.6948 17.2414C23.776 17.3145 23.8523 17.3926 23.921 17.4776C24.2091 17.8333 24.3804 18.2858 24.3804 18.7689C24.3804 19.7345 23.6954 20.5801 22.751 20.7801C22.5248 20.8289 22.2923 20.8395 22.0529 20.8051C21.0391 20.672 20.2741 19.7976 20.2741 18.7708C20.2741 18.6426 20.286 18.5164 20.3091 18.3939C20.4698 17.5364 21.1666 16.852 22.061 16.7351C22.1491 16.7226 22.2373 16.7164 22.3291 16.7164C22.466 16.7164 22.6104 16.732 22.7466 16.7608C22.7498 16.7614 22.7523 16.7633 22.7554 16.7639C23.0416 16.8233 23.2991 16.9476 23.526 17.1114C23.5798 17.1501 23.636 17.1864 23.6854 17.2301H23.6835ZM20.8285 21.6664C20.9279 21.7183 21.0329 21.7589 21.1385 21.8008C21.206 21.827 21.2698 21.8589 21.3398 21.8808C21.3498 21.8839 21.3585 21.8889 21.3685 21.892V24.3026H18.3729V12.1126H21.3685V15.6495C21.3579 15.6526 21.3485 15.6583 21.3385 15.6614C21.2798 15.6801 21.226 15.707 21.1685 15.7289C21.051 15.7739 20.9348 15.8201 20.8241 15.8776C20.761 15.9108 20.7029 15.9495 20.6423 15.9864C20.5454 16.0451 20.4498 16.1058 20.3598 16.1745C20.301 16.2195 20.246 16.2676 20.1904 16.3164C20.1079 16.3883 20.0291 16.4633 19.9541 16.5426C19.9029 16.5976 19.8541 16.6533 19.8066 16.7114C19.7373 16.7958 19.6741 16.8839 19.6135 16.9751C19.5723 17.037 19.5316 17.0983 19.4954 17.1626C19.4398 17.2608 19.3923 17.3626 19.3466 17.467C19.3179 17.532 19.2873 17.5958 19.2629 17.6626C19.2204 17.7795 19.1898 17.9008 19.161 18.0226C19.1466 18.0826 19.1273 18.1401 19.116 18.2014C19.0829 18.387 19.0635 18.5764 19.0635 18.7701C19.0635 18.9639 19.0835 19.1533 19.116 19.3389C19.1266 19.4001 19.1466 19.4576 19.161 19.5176C19.1898 19.6395 19.2204 19.7601 19.2629 19.877C19.2879 19.9451 19.3191 20.0095 19.3485 20.0758C19.3935 20.1783 19.4404 20.2789 19.4954 20.3758C19.5335 20.4426 19.5754 20.5058 19.6173 20.5695C19.676 20.6576 19.7373 20.7433 19.8041 20.8251C19.8541 20.8864 19.9054 20.9451 19.9598 21.0033C20.0304 21.0789 20.1054 21.1489 20.1829 21.2176C20.2429 21.2708 20.3029 21.3233 20.3666 21.3714C20.4498 21.4339 20.5373 21.4895 20.626 21.5445C20.6935 21.5864 20.7598 21.6301 20.8304 21.667L20.8285 21.6664ZM18.0785 7.24576C18.0785 7.02014 18.2623 6.83639 18.4879 6.83639H21.2523C21.4779 6.83639 21.6616 7.02014 21.6616 7.24576C21.6616 7.47139 21.4779 7.65514 21.2523 7.65514H18.4879C18.2623 7.65514 18.0785 7.47139 18.0785 7.24576ZM19.4329 8.86639H20.3073V10.902H19.4329V8.86639ZM20.3079 26.432H19.4329V25.5139H20.3073V26.432H20.3079ZM15.2579 34.2164C15.186 34.1395 15.171 34.0645 15.171 34.0158C15.171 33.8976 15.2541 33.7095 15.4773 33.7095H24.8198C24.8116 33.722 24.8035 33.7345 24.796 33.7476L24.4704 34.3095H15.4773C15.3954 34.3095 15.3135 34.2733 15.2579 34.2164ZM22.2929 36.0683C21.8798 36.0683 21.516 35.8495 21.3129 35.5214H23.7716L23.5623 35.8845L23.456 36.0683H22.2929ZM22.9923 39.2914L24.326 36.982C24.326 36.982 24.3291 36.9783 24.3304 36.9758L24.7841 36.1883L25.841 34.3589C25.8741 34.3033 25.9266 34.3064 25.9379 34.3076C25.9573 34.3114 25.9854 34.3239 26.0079 34.3614C26.0366 34.4101 26.0723 34.4545 26.1135 34.4933L27.8654 36.1439C27.8654 36.1439 27.8685 36.1458 27.8704 36.147L31.2116 39.292L22.9923 39.2914ZM32.416 33.0433C31.266 33.9045 29.931 34.5701 28.4448 35.0239L26.9973 33.6614C26.9566 33.6026 26.911 33.5476 26.8623 33.497C28.6916 33.0514 31.9498 31.6876 33.2554 27.5564C33.7685 25.9433 33.7329 24.2751 33.1566 22.8639C32.556 21.3651 31.1285 19.4176 27.7385 18.652C27.4635 18.5889 27.1829 18.7251 27.0598 18.9789L25.4854 22.2333H23.4816V21.8239C23.4916 21.8201 23.5004 21.8145 23.5104 21.8108C23.5791 21.7839 23.6429 21.7483 23.7098 21.717C23.801 21.6739 23.8929 21.6314 23.9791 21.5801C24.0523 21.537 24.1198 21.4876 24.1885 21.4389C24.2604 21.3883 24.3316 21.3383 24.3991 21.282C24.4679 21.2251 24.5323 21.1639 24.596 21.1014C24.6548 21.0439 24.711 20.9858 24.7654 20.9245C24.8266 20.8551 24.8841 20.7845 24.9391 20.7108C24.986 20.6476 25.0298 20.582 25.0723 20.5151C25.1229 20.4358 25.1716 20.3564 25.2154 20.2733C25.2516 20.2039 25.2823 20.1326 25.3135 20.0608C25.3516 19.9739 25.3904 19.8876 25.4204 19.797C25.4454 19.722 25.4623 19.6445 25.4816 19.5676C25.5054 19.4751 25.5323 19.3839 25.5479 19.2883C25.5616 19.2039 25.5635 19.1164 25.5704 19.0301C25.5773 18.9433 25.5935 18.8589 25.5935 18.7708C25.5935 18.6939 25.5791 18.6195 25.5735 18.5439C25.5666 18.4439 25.5635 18.3439 25.5473 18.2464C25.5341 18.1658 25.5104 18.0889 25.491 18.0108C25.4685 17.9164 25.4473 17.822 25.416 17.7314C25.391 17.6576 25.3591 17.5883 25.3291 17.517C25.2904 17.4258 25.2516 17.3351 25.2054 17.2476C25.1704 17.182 25.1316 17.1201 25.0929 17.0576C25.0391 16.9708 24.9829 16.8864 24.921 16.8051C24.8779 16.7483 24.8335 16.6939 24.7866 16.6395C24.7179 16.5601 24.646 16.4858 24.5698 16.4133C24.5191 16.3651 24.4691 16.3176 24.416 16.2726C24.3348 16.2045 24.2491 16.1426 24.161 16.0826C24.1035 16.0433 24.0479 16.002 23.9873 15.9664C23.896 15.912 23.7998 15.867 23.7029 15.822C23.6379 15.7914 23.576 15.757 23.5085 15.7308C23.4991 15.727 23.491 15.722 23.4823 15.7183V15.2945C25.2873 14.9889 31.8873 14.2733 35.0523 19.3914C37.8279 23.8858 36.6704 29.882 32.4179 33.0414C32.4173 33.0414 32.4166 33.0426 32.416 33.0433Z" fill="black"/>
</svg>
