<svg width="50" height="50" viewBox="0 0 50 50" fill="none" xmlns="http://www.w3.org/2000/svg">
<path d="M12.5 15.8335V7.50016C12.5 7.05814 12.6756 6.63421 12.9882 6.32165C13.3007 6.00909 13.7246 5.8335 14.1667 5.8335H34.1667C34.6087 5.8335 35.0326 6.00909 35.3452 6.32165C35.6577 6.63421 35.8333 7.05814 35.8333 7.50016V15.8335M12.5 34.1668V42.5002C12.5 42.9422 12.6756 43.3661 12.9882 43.6787C13.3007 43.9912 13.7246 44.1668 14.1667 44.1668H34.1667C34.6087 44.1668 35.0326 43.9912 35.3452 43.6787C35.6577 43.3661 35.8333 42.9422 35.8333 42.5002V34.1668M15 12.5002H33.3333M15 37.5002H33.3333M17.5 9.16683H27.5M29.1667 9.16683H30.8333M23.3333 40.8335H25M29.1667 18.3335V21.6668M20.8333 18.3335V21.6668M12.5 18.3335V21.6668M37.5 18.3335V21.6668" stroke="black" stroke-width="1.25" stroke-linejoin="round"/>
<path d="M42.5003 18.3335H7.50033C7.04009 18.3335 6.66699 18.7066 6.66699 19.1668V24.1668C6.66699 24.6271 7.04009 25.0002 7.50033 25.0002H42.5003C42.9606 25.0002 43.3337 24.6271 43.3337 24.1668V19.1668C43.3337 18.7066 42.9606 18.3335 42.5003 18.3335Z" stroke="black" stroke-width="1.25" stroke-linejoin="round"/>
<path d="M25.0003 18.3335V22.5002M16.667 18.3335V22.5002M33.3337 18.3335V22.5002M12.5003 31.6668V28.3335M40.8337 31.6668L43.3337 30.0002L40.8337 28.3335H6.66699V31.6668H40.8337Z" stroke="black" stroke-width="1.25" stroke-linejoin="round"/>
</svg>
