<svg width="50" height="50" viewBox="0 0 50 50" fill="none" xmlns="http://www.w3.org/2000/svg">
<path d="M31.7623 22.9998C31.7623 18.9998 28.5623 15.7998 24.5623 15.7998C20.5623 15.7998 17.3623 18.9998 17.3623 22.9998C17.3623 26.9998 20.5623 30.1998 24.5623 30.1998C28.5623 30.1998 31.7623 26.9998 31.7623 22.9998ZM24.5623 28.5998C21.4423 28.5998 18.9623 26.1198 18.9623 22.9998C18.9623 19.8798 21.4423 17.3998 24.5623 17.3998C27.6823 17.3998 30.1623 19.8798 30.1623 22.9998C30.1623 26.1198 27.6823 28.5998 24.5623 28.5998Z" fill="black"/>
<path d="M27.1227 34.6002L27.3627 33.4002C28.3227 33.1602 29.2027 32.7602 30.0027 32.2802L31.0427 33.0002C31.6027 33.4002 32.4027 33.3202 32.8827 32.8402L34.4827 31.2402C34.9627 30.7602 35.0427 29.9602 34.6427 29.4002L33.9227 28.3602C34.4027 27.5602 34.7227 26.6802 35.0427 25.7202L36.2427 25.4802C36.9627 25.4002 37.4427 24.7602 37.4427 24.0402V21.7202C37.4427 21.0002 36.9627 20.4402 36.2427 20.2802L34.9627 20.2002C34.7227 19.3202 34.3227 18.4402 33.8427 17.5602L34.5627 16.6002C34.9627 16.0402 34.8827 15.2402 34.4027 14.7602L32.8027 13.1602C32.3227 12.6002 31.5227 12.6002 30.9627 13.0002L29.9227 13.7202C29.1227 13.2402 28.2427 12.9202 27.2827 12.6002L27.0427 11.4002C27.0427 10.6802 26.4027 10.2002 25.6827 10.2002H23.3627C22.6427 10.2002 22.0827 10.6802 21.9227 11.4002L21.7627 12.6002C20.8027 12.8402 19.9227 13.2402 19.1227 13.7202L18.1627 13.0002C17.6027 12.6002 16.8027 12.6802 16.3227 13.1602L14.7227 14.7602C14.1627 15.2402 14.1627 16.0402 14.5627 16.6002L15.2827 17.6402C14.8027 18.4402 14.4027 19.3202 14.1627 20.2802L12.9627 20.5202C12.2427 20.5202 11.7627 21.1602 11.7627 21.8802V24.2002C11.7627 24.9202 12.2427 25.4802 12.9627 25.6402L14.1627 25.8802C14.4027 26.8402 14.8027 27.7202 15.2827 28.5202L14.5627 29.4002C14.1627 29.9602 14.2427 30.7602 14.7227 31.2402L16.3227 32.8402C16.8027 33.3202 17.6027 33.4002 18.1627 33.0002L19.2027 32.2802C20.0027 32.7602 20.8827 33.0802 21.8427 33.4002L22.0827 34.6002C22.1627 35.3202 22.8027 35.8002 23.5227 35.8002H25.8427C26.4027 35.8002 27.0427 35.3202 27.1227 34.6002ZM23.5227 34.2002L23.2827 33.0002C23.2027 32.4402 22.7227 31.9602 22.2427 31.8002C21.4427 31.5602 20.6427 31.2402 19.8427 30.8402C19.3627 30.5202 18.7227 30.6002 18.2427 30.9202L17.3627 31.6402L15.9227 30.2002L16.6427 29.2402C16.9627 28.7602 16.9627 28.2002 16.7227 27.6402C16.3227 26.9202 15.9227 26.1202 15.7627 25.3202C15.6027 24.7602 15.2027 24.3602 14.6427 24.2002L13.3627 24.0402V22.0402L14.5627 21.8002C15.1227 21.7202 15.6027 21.2402 15.6827 20.7602C15.9227 19.9602 16.2427 19.1602 16.6427 18.3602C16.9627 17.8802 16.8827 17.2402 16.5627 16.7602L15.9227 15.8002L17.3627 14.3602L18.3227 15.0802C18.8027 15.4002 19.3627 15.4002 19.9227 15.1602C20.6427 14.7602 21.4427 14.3602 22.2427 14.2002C22.8027 14.0402 23.2827 13.6402 23.3627 13.0802L23.6027 11.8802H25.6027L25.8427 13.0802C25.9227 13.6402 26.4027 14.1202 26.9627 14.2802C27.7627 14.5202 28.5627 14.8402 29.2827 15.2402C29.7627 15.5602 30.4027 15.4802 30.8827 15.1602L31.8427 14.4402L33.2827 15.8802L32.5627 16.8402C32.2427 17.3202 32.2427 17.8802 32.4827 18.4402C32.8827 19.1602 33.2827 19.9602 33.4427 20.7602C33.6027 21.3202 34.0027 21.7202 34.5627 21.8802L35.7627 22.1202V24.1202L34.5627 24.3602C34.0027 24.4402 33.5227 24.9202 33.4427 25.4002C33.2027 26.2002 32.8827 27.0002 32.4827 27.8002C32.1627 28.2802 32.2427 28.9202 32.5627 29.4002L33.2827 30.3602L31.7627 31.6402L30.8027 30.9202C30.3227 30.6002 29.7627 30.6002 29.2027 30.8402C28.4827 31.2402 27.6827 31.6402 26.8827 31.8002C26.3227 31.9602 25.9227 32.3602 25.7627 32.9202L25.6027 34.2002H23.5227Z" fill="black"/>
<path d="M8.16217 19.7202C8.56217 19.8002 9.04217 19.5602 9.12217 19.1602C10.6422 12.9202 15.7622 8.36016 21.9222 7.32016L20.5622 8.44016C20.2422 8.68016 20.1622 9.24016 20.4022 9.56016C20.6422 9.88016 21.2022 9.96016 21.5222 9.72016L25.0422 7.00016C25.2822 6.84016 25.3622 6.52016 25.3622 6.28016C25.3622 5.96016 25.1222 5.72016 24.8822 5.64016L20.8022 3.88016C20.4022 3.72016 19.9222 3.88016 19.7622 4.28016C19.6022 4.68016 19.7622 5.16016 20.1622 5.32016L21.3622 5.80016C14.7222 7.08016 9.28217 12.0402 7.60217 18.7602C7.52217 19.2402 7.76217 19.6402 8.16217 19.7202ZM20.7222 38.3602C14.4822 36.8402 9.92217 31.7202 8.96217 25.5602L10.0022 27.0002C10.2422 27.3202 10.8022 27.4002 11.1222 27.1602C11.4422 26.9202 11.5222 26.3602 11.2822 26.0402L8.56217 22.5202C8.40217 22.2802 8.08217 22.2002 7.84217 22.2002C7.52217 22.2002 7.28217 22.4402 7.20217 22.6802L5.44217 26.7602C5.28217 27.1602 5.44217 27.6402 5.84217 27.8002C6.24217 27.9602 6.72217 27.8002 6.88217 27.4002L7.44217 26.2002C8.64217 32.8402 13.6022 38.2802 20.4022 39.9602C20.8022 40.0402 21.2822 39.8002 21.3622 39.4002C21.4422 38.9202 21.1222 38.5202 20.7222 38.3602ZM40.9622 25.9602C40.5622 25.8802 40.0822 26.1202 40.0022 26.6002C38.5622 33.0002 33.4422 37.6402 27.2022 38.6802L28.5622 37.6402C28.8822 37.4002 28.9622 36.8402 28.7222 36.5202C28.4822 36.2002 27.9222 36.1202 27.6022 36.3602L24.0822 39.0002C23.8422 39.1602 23.7622 39.4802 23.7622 39.7202C23.7622 40.0402 24.0022 40.2802 24.2422 40.3602L28.3222 42.1202C28.7222 42.2802 29.2022 42.1202 29.3622 41.7202C29.5222 41.3202 29.3622 40.8402 28.9622 40.6802L27.7622 40.1202C34.5622 38.9202 40.0022 33.8002 41.6022 26.9202C41.6822 26.5202 41.4422 26.0402 40.9622 25.9602ZM43.2822 18.2002C42.8822 18.0402 42.4022 18.2002 42.2422 18.6002L41.6822 19.8002C40.4822 13.0002 35.3622 7.56016 28.4022 5.96016C28.0022 5.88016 27.5222 6.12016 27.4422 6.60016C27.3622 7.00016 27.6022 7.48016 28.0822 7.56016C34.4822 9.00016 39.1222 14.1202 40.1622 20.4402L39.1222 19.0002C38.8822 18.6802 38.3222 18.6002 38.0022 18.8402C37.6822 19.0802 37.6022 19.6402 37.8422 19.9602L40.5622 23.4802C40.7222 23.6402 40.9622 23.8002 41.2022 23.8002C41.5222 23.8002 41.8422 23.6402 41.9222 23.3202L43.6822 19.2402C43.8422 18.8402 43.6822 18.3602 43.2822 18.2002Z" fill="black"/>
</svg>
