<svg width="50" height="50" viewBox="0 0 50 50" fill="none" xmlns="http://www.w3.org/2000/svg">
<g clip-path="url(#clip0_4170_10298)">
<path d="M37.4333 35.4167C37.9428 34.4055 38.2408 33.3011 38.3093 32.1709C38.3778 31.0408 38.2152 29.9085 37.8315 28.8432C37.4478 27.778 36.8511 26.8021 36.0777 25.9751C35.3043 25.1481 34.3705 24.4874 33.3333 24.0333V23.3333C33.3224 23.2239 33.29 23.1177 33.238 23.0208C33.186 22.9239 33.1154 22.8381 33.0303 22.7685C32.9452 22.6988 32.8472 22.6466 32.7419 22.6149C32.6366 22.5831 32.5261 22.5724 32.4167 22.5833C32.3072 22.5943 32.201 22.6267 32.1041 22.6787C32.0072 22.7306 31.9215 22.8012 31.8518 22.8863C31.7822 22.9715 31.73 23.0695 31.6982 23.1748C31.6664 23.28 31.6557 23.3906 31.6667 23.5C30.2453 23.2097 28.7728 23.2954 27.3948 23.7487C26.0168 24.202 24.781 25.0072 23.8096 26.0847C22.8382 27.1621 22.1649 28.4745 21.8563 29.892C21.5477 31.3094 21.6145 32.7829 22.05 34.1667H6.66667V9.16667H14.1667V15C14.1667 15.221 14.2545 15.433 14.4107 15.5893C14.567 15.7455 14.779 15.8333 15 15.8333H23.3333C23.5543 15.8333 23.7663 15.7455 23.9226 15.5893C24.0789 15.433 24.1667 15.221 24.1667 15V9.16667H31.6667V10C31.6667 10.221 31.7545 10.433 31.9107 10.5893C32.067 10.7455 32.279 10.8333 32.5 10.8333C32.721 10.8333 32.933 10.7455 33.0893 10.5893C33.2455 10.433 33.3333 10.221 33.3333 10V8.33333C33.3333 8.11232 33.2455 7.90036 33.0893 7.74408C32.933 7.5878 32.721 7.5 32.5 7.5H5.83333C5.61232 7.5 5.40036 7.5878 5.24408 7.74408C5.0878 7.90036 5 8.11232 5 8.33333V35C5 35.221 5.0878 35.433 5.24408 35.5893C5.40036 35.7455 5.61232 35.8333 5.83333 35.8333H22.7917C23.857 37.6727 25.5851 39.0355 27.6221 39.6427C29.6592 40.25 31.8514 40.0558 33.75 39.1C38.9833 44.325 39.3167 45.1 40.8333 45.1C41.3467 45.0973 41.8479 44.9432 42.2741 44.6569C42.7003 44.3706 43.0325 43.965 43.2291 43.4907C43.4258 43.0165 43.4781 42.4948 43.3795 41.9909C43.2809 41.4871 43.0359 41.0235 42.675 40.6583L37.4333 35.4167ZM22.5 9.16667V14.1667H15.8333V9.16667H22.5ZM23.3333 31.6667C23.3333 30.3481 23.7243 29.0592 24.4569 27.9629C25.1894 26.8665 26.2306 26.0121 27.4488 25.5075C28.667 25.0029 30.0074 24.8709 31.3006 25.1281C32.5938 25.3853 33.7817 26.0203 34.714 26.9526C35.6464 27.885 36.2813 29.0729 36.5386 30.3661C36.7958 31.6593 36.6638 32.9997 36.1592 34.2179C35.6546 35.4361 34.8001 36.4773 33.7038 37.2098C32.6075 37.9423 31.3185 38.3333 30 38.3333C28.2319 38.3333 26.5362 37.631 25.286 36.3807C24.0357 35.1305 23.3333 33.4348 23.3333 31.6667ZM40.175 43.1583L35.175 38.1583C35.6585 37.7665 36.0998 37.3252 36.4917 36.8417L41.4917 41.8417C41.6465 42.02 41.728 42.2504 41.7197 42.4864C41.7114 42.7225 41.6139 42.9466 41.4469 43.1136C41.2799 43.2806 41.0558 43.378 40.8198 43.3864C40.5837 43.3947 40.3533 43.3132 40.175 43.1583Z" fill="black"/>
<path d="M44.1663 19.1667V8.33333C44.1663 8.11232 44.0785 7.90036 43.9223 7.74408C43.766 7.5878 43.554 7.5 43.333 7.5H39.9997C39.7787 7.5 39.5667 7.5878 39.4104 7.74408C39.2541 7.90036 39.1663 8.11232 39.1663 8.33333V19.1667H38.333V11.6667C38.333 11.4457 38.2452 11.2337 38.0889 11.0774C37.9327 10.9211 37.7207 10.8333 37.4997 10.8333H34.1663C33.9453 10.8333 33.7334 10.9211 33.5771 11.0774C33.4208 11.2337 33.333 11.4457 33.333 11.6667V19.1667H32.4997V13.3333C32.4997 13.1123 32.4119 12.9004 32.2556 12.7441C32.0993 12.5878 31.8874 12.5 31.6663 12.5H28.333C28.112 12.5 27.9 12.5878 27.7438 12.7441C27.5875 12.9004 27.4997 13.1123 27.4997 13.3333V19.1667C27.2787 19.1667 27.0667 19.2545 26.9104 19.4107C26.7541 19.567 26.6663 19.779 26.6663 20C26.6663 20.221 26.7541 20.433 26.9104 20.5893C27.0667 20.7455 27.2787 20.8333 27.4997 20.8333H44.1663C44.3874 20.8333 44.5993 20.7455 44.7556 20.5893C44.9119 20.433 44.9997 20.221 44.9997 20C44.9997 19.779 44.9119 19.567 44.7556 19.4107C44.5993 19.2545 44.3874 19.1667 44.1663 19.1667ZM29.1663 19.1667V14.1667H30.833V19.1667H29.1663ZM34.9997 19.1667V12.5H36.6663V19.1667H34.9997ZM40.833 19.1667V9.16667H42.4997V19.1667H40.833ZM9.16634 25.8333C8.94533 25.8333 8.73337 25.9211 8.57709 26.0774C8.42081 26.2337 8.33301 26.4457 8.33301 26.6667V31.6667C8.33301 31.8877 8.42081 32.0996 8.57709 32.2559C8.73337 32.4122 8.94533 32.5 9.16634 32.5H17.4997C17.7207 32.5 17.9327 32.4122 18.0889 32.2559C18.2452 32.0996 18.333 31.8877 18.333 31.6667V26.6667C18.333 26.4457 18.2452 26.2337 18.0889 26.0774C17.9327 25.9211 17.7207 25.8333 17.4997 25.8333H9.16634ZM16.6663 30.8333H9.99967V27.5H16.6663V30.8333Z" fill="black"/>
<path d="M12.5003 29.9999H14.167C14.388 29.9999 14.6 29.9121 14.7562 29.7558C14.9125 29.5996 15.0003 29.3876 15.0003 29.1666C15.0003 28.9456 14.9125 28.7336 14.7562 28.5773C14.6 28.421 14.388 28.3333 14.167 28.3333H12.5003C12.2793 28.3333 12.0674 28.421 11.9111 28.5773C11.7548 28.7336 11.667 28.9456 11.667 29.1666C11.667 29.3876 11.7548 29.5996 11.9111 29.7558C12.0674 29.9121 12.2793 29.9999 12.5003 29.9999Z" fill="black"/>
</g>
<defs>
<clipPath id="clip0_4170_10298">
<rect width="40" height="40" fill="white" transform="translate(5 5)"/>
</clipPath>
</defs>
</svg>
