<svg width="50" height="50" viewBox="0 0 50 50" fill="none" xmlns="http://www.w3.org/2000/svg">
<g clip-path="url(#clip0_4170_10303)">
<path d="M44.1667 10.8333C42.65 10.8333 42.8667 10.8333 42.8083 10.7333C44.5833 8.95833 44.5833 9.46667 41.3833 6.25833C41.3059 6.18023 41.2137 6.11823 41.1121 6.07592C41.0106 6.03362 40.9017 6.01183 40.7917 6.01183C40.6817 6.01183 40.5727 6.03362 40.4712 6.07592C40.3696 6.11823 40.2775 6.18023 40.2 6.25833C38.9333 7.5 39.1667 7.59167 39.1667 5.83333C39.1667 5.61232 39.0789 5.40036 38.9226 5.24408C38.7663 5.0878 38.5543 5 38.3333 5H35C34.779 5 34.567 5.0878 34.4107 5.24408C34.2545 5.40036 34.1667 5.61232 34.1667 5.83333C34.1667 7.625 34.375 7.5 33.1333 6.25833C33.0559 6.18023 32.9637 6.11823 32.8621 6.07592C32.7606 6.03362 32.6517 6.01183 32.5417 6.01183C32.4317 6.01183 32.3227 6.03362 32.2212 6.07592C32.1196 6.11823 32.0275 6.18023 31.95 6.25833C28.7583 9.45833 28.7417 8.95 30.525 10.7333C30.4667 10.875 30.6833 10.8333 29.1667 10.8333C28.9457 10.8333 28.7337 10.9211 28.5774 11.0774C28.4211 11.2337 28.3333 11.4457 28.3333 11.6667V14.1667H10.8333C10.6123 14.1667 10.4004 14.2545 10.2441 14.4107C10.0878 14.567 10 14.779 10 15V28.8917L5.16667 35.3333C5.07381 35.4571 5.01727 35.6044 5.00337 35.7585C4.98947 35.9126 5.01877 36.0676 5.08798 36.206C5.15719 36.3444 5.26358 36.4608 5.39522 36.5422C5.52687 36.6236 5.67857 36.6667 5.83333 36.6667H7.5V44.1667C7.5 44.3877 7.5878 44.5996 7.74408 44.7559C7.90036 44.9122 8.11232 45 8.33333 45H13.3333C13.5543 45 13.7663 44.9122 13.9226 44.7559C14.0789 44.5996 14.1667 44.3877 14.1667 44.1667V40.8333H35.8333C36.0543 40.8333 36.2663 40.7455 36.4226 40.5893C36.5789 40.433 36.6667 40.221 36.6667 40V21.6667H38.3333C38.5543 21.6667 38.7663 21.5789 38.9226 21.4226C39.0789 21.2663 39.1667 21.0543 39.1667 20.8333C39.1667 19.05 38.95 19.1667 40.2 20.4083C40.2775 20.4864 40.3696 20.5484 40.4712 20.5907C40.5727 20.633 40.6817 20.6548 40.7917 20.6548C40.9017 20.6548 41.0106 20.633 41.1121 20.5907C41.2137 20.5484 41.3059 20.4864 41.3833 20.4083C44.575 17.2083 44.5917 17.7167 42.8083 15.9333C42.8667 15.8333 42.65 15.8333 44.1667 15.8333C44.3877 15.8333 44.5996 15.7455 44.7559 15.5893C44.9122 15.433 45 15.221 45 15V11.6667C45 11.4457 44.9122 11.2337 44.7559 11.0774C44.5996 10.9211 44.3877 10.8333 44.1667 10.8333ZM25.8333 15.8333V20.8333H20.8333V15.8333H25.8333ZM12.5 43.3333H9.16667V35.8333C9.16667 35.6123 9.07887 35.4004 8.92259 35.2441C8.76631 35.0878 8.55435 35 8.33333 35H7.5L10.8333 30.5583L14.1667 35H13.3333C13.1123 35 12.9004 35.0878 12.7441 35.2441C12.5878 35.4004 12.5 35.6123 12.5 35.8333V43.3333ZM35 39.1667H14.1667V36.6667C15.9333 36.6667 16.2917 36.7833 16.575 36.2083C16.8583 35.6333 16.7667 35.6917 11.6667 28.8917V15.8333H19.1667V21.6667C19.1667 21.8877 19.2545 22.0996 19.4107 22.2559C19.567 22.4122 19.779 22.5 20 22.5H26.6667C26.8877 22.5 27.0996 22.4122 27.2559 22.2559C27.4122 22.0996 27.5 21.8877 27.5 21.6667V15.8333C30.8333 15.8333 30.4667 15.7833 30.525 15.9333C28.75 17.7083 28.75 17.2 31.95 20.4083C32.0275 20.4864 32.1196 20.5484 32.2212 20.5907C32.3227 20.633 32.4317 20.6548 32.5417 20.6548C32.6517 20.6548 32.7606 20.633 32.8621 20.5907C32.9637 20.5484 33.0559 20.4864 33.1333 20.4083C34.4 19.1667 34.1667 19.075 34.1667 20.8333C34.1667 21.0543 34.2545 21.2663 34.4107 21.4226C34.567 21.5789 34.779 21.6667 35 21.6667V39.1667ZM43.3333 14.1667C42.5 14.1667 41.6667 14.0083 41.4583 14.7583C40.9333 16.5167 40.45 15.9417 41.9667 17.4583L40.8333 18.6333C40.2417 18.05 39.7833 17.35 39.0833 17.7333C37.475 18.5667 37.5417 17.85 37.5417 20H35.8333C35.8333 19.1667 35.9917 18.3333 35.2417 18.125C33.475 17.6 34.05 17.125 32.5417 18.6333L31.3667 17.5C32.75 16.1167 32.5167 16.4833 31.85 14.75C31.575 14 30.7583 14.1667 30 14.1667V12.5C32.15 12.5 31.3917 12.5667 32.2667 10.9583C32.6333 10.2833 32.0417 9.88333 31.3667 9.20833L32.5417 8.03333C34.05 9.53333 33.4667 9.06667 35.2417 8.54167C35.95 8.33333 35.8333 7.69167 35.8333 6.66667H37.5C37.5 8.81667 37.4333 8.05833 39.0417 8.93333C39.7167 9.3 40.0917 8.725 40.7917 8.03333L41.9667 9.20833C40.4583 10.7167 40.9333 10.1333 41.4583 11.9083C41.6667 12.6167 42.3083 12.5 43.3333 12.5V14.1667Z" fill="black"/>
<path d="M36.6663 10C36.0071 10 35.3626 10.1955 34.8144 10.5618C34.2663 10.928 33.839 11.4486 33.5867 12.0577C33.3345 12.6668 33.2684 13.337 33.3971 13.9836C33.5257 14.6302 33.8431 15.2242 34.3093 15.6904C34.7755 16.1565 35.3694 16.474 36.016 16.6026C36.6626 16.7312 37.3329 16.6652 37.942 16.4129C38.551 16.1606 39.0716 15.7334 39.4379 15.1852C39.8042 14.6371 39.9997 13.9926 39.9997 13.3333C39.9997 12.4493 39.6485 11.6014 39.0234 10.9763C38.3982 10.3512 37.5504 10 36.6663 10ZM36.6663 15C36.3367 15 36.0145 14.9023 35.7404 14.7191C35.4663 14.536 35.2527 14.2757 35.1265 13.9711C35.0004 13.6666 34.9674 13.3315 35.0317 13.0082C35.096 12.6849 35.2547 12.3879 35.4878 12.1548C35.7209 11.9217 36.0179 11.763 36.3412 11.6987C36.6645 11.6344 36.9996 11.6674 37.3041 11.7935C37.6087 11.9197 37.869 12.1333 38.0521 12.4074C38.2353 12.6815 38.333 13.0037 38.333 13.3333C38.333 13.7754 38.1574 14.1993 37.8449 14.5118C37.5323 14.8244 37.1084 15 36.6663 15Z" fill="black"/>
</g>
<defs>
<clipPath id="clip0_4170_10303">
<rect width="40" height="40" fill="white" transform="translate(5 5)"/>
</clipPath>
</defs>
</svg>
