<svg width="50" height="50" viewBox="0 0 50 50" fill="none" xmlns="http://www.w3.org/2000/svg">
<g clip-path="url(#clip0_4170_10308)">
<path d="M24.6313 7.73809L23.7573 6.86675C23.58 6.68526 23.3543 6.55849 23.1071 6.50152C22.8598 6.44456 22.6014 6.4598 22.3626 6.54542C22.1337 6.62622 21.9328 6.7711 21.7839 6.9628C21.635 7.15451 21.5443 7.38497 21.5226 7.62675L21 12.8534C20.9825 13.0515 21.0087 13.2511 21.0767 13.438C21.1448 13.6249 21.2529 13.7946 21.3937 13.9352C21.5344 14.0757 21.7043 14.1837 21.8913 14.2514C22.0783 14.3192 22.2778 14.3452 22.476 14.3274L27.704 13.8074C27.9458 13.7853 28.1762 13.6943 28.3679 13.5453C28.5596 13.3963 28.7047 13.1956 28.786 12.9668C28.8713 12.728 28.8866 12.4699 28.83 12.2228C28.7735 11.9756 28.6474 11.7499 28.4666 11.5721L27.4886 10.5961C29.1356 9.42309 31.1444 8.87061 33.1596 9.03642C35.1747 9.20224 37.0662 10.0757 38.4993 11.5021C40.1012 13.1042 41.0011 15.277 41.0009 17.5426C41.0008 19.8081 40.1007 21.9808 38.4986 23.5828C37.7053 24.3759 36.7636 25.0051 35.7272 25.4343C34.6908 25.8636 33.5799 26.0845 32.4581 26.0844C30.1926 26.0843 28.0199 25.1842 26.4179 23.5821C24.7055 21.8702 22.5343 20.6904 20.1662 20.1851C17.7982 19.6797 15.3345 19.8704 13.0724 20.734C10.8103 21.5977 8.84649 23.0975 7.41779 25.0524C5.9891 27.0074 5.1566 29.3339 5.02075 31.7515C4.88489 34.169 5.45148 36.5742 6.65215 38.6769C7.85283 40.7796 9.63629 42.49 11.7874 43.6017C13.9385 44.7133 16.3653 45.1788 18.775 44.9419C21.1848 44.7051 23.4745 43.776 25.368 42.2668L26.242 43.1408C26.4191 43.3224 26.6447 43.4494 26.892 43.5066C27.1392 43.5638 27.3977 43.5488 27.6366 43.4634C27.8654 43.3822 28.0662 43.2371 28.2152 43.0454C28.3642 42.8536 28.4551 42.6232 28.4773 42.3814L29 37.1488C29.0187 36.9507 28.9932 36.7509 28.9253 36.5639C28.8574 36.3769 28.7488 36.2073 28.6073 36.0674C28.4665 35.9267 28.2965 35.8185 28.1093 35.7507C27.9221 35.6828 27.7223 35.6569 27.524 35.6748L22.2959 36.1941C22.0541 36.2158 21.8236 36.3066 21.6319 36.4557C21.4401 36.6047 21.2953 36.8057 21.2146 37.0347C21.1294 37.2738 21.1144 37.5324 21.1716 37.7797C21.2288 38.027 21.3557 38.2527 21.5373 38.4301L22.5193 39.4121C21.1927 40.3606 19.6225 40.9099 17.994 40.9952C16.3654 41.0804 14.7464 40.6981 13.3281 39.8932C11.9097 39.0884 10.7512 37.8946 9.98913 36.4528C9.22709 35.011 8.89335 33.3813 9.02729 31.7561C9.16123 30.1308 9.75726 28.5777 10.7451 27.2801C11.7329 25.9825 13.0712 24.9946 14.6022 24.4328C16.1331 23.871 17.7929 23.7588 19.3855 24.1095C20.9781 24.4602 22.4372 25.2592 23.5906 26.4121C25.3447 28.1661 27.5795 29.3606 30.0124 29.8444C32.4454 30.3283 34.9672 30.0797 37.2589 29.1303C39.5506 28.1808 41.5092 26.5731 42.8871 24.5104C44.2651 22.4477 45.0003 20.0227 45 17.5421C45.0007 15.1802 44.3344 12.8661 43.0779 10.8661C41.8214 8.86617 40.0257 7.26167 37.8975 6.2373C35.7692 5.21293 33.395 4.81033 31.0481 5.07584C28.7011 5.34135 26.4769 6.26417 24.6313 7.73809ZM40.3859 25.4668C38.2827 27.5676 35.4314 28.7477 32.4586 28.7477C29.4858 28.7477 26.6346 27.5676 24.5313 25.4668C23.1728 24.1086 21.448 23.1759 19.5678 22.7826C17.6875 22.3893 15.7335 22.5525 13.9445 23.2523C12.1556 23.9521 10.6094 25.1581 9.49514 26.7228C8.38083 28.2874 7.7467 30.143 7.67033 32.0624C7.59396 33.9818 8.07866 35.8818 9.06513 37.5301C10.0516 39.1783 11.4971 40.5034 13.2247 41.3431C14.9524 42.1828 16.8873 42.5007 18.7929 42.2581C20.6984 42.0154 22.4919 41.2226 23.954 39.9767C24.0235 39.9169 24.0799 39.8434 24.1197 39.7607C24.1596 39.6781 24.1819 39.5881 24.1853 39.4964C24.1888 39.4047 24.1733 39.3133 24.1397 39.2279C24.1062 39.1425 24.0555 39.065 23.9906 39.0001L22.4253 37.5201L27.6706 37.0181L27.1846 42.1941L25.878 40.8874C25.7579 40.7675 25.5967 40.6978 25.4272 40.6926C25.2576 40.6874 25.0924 40.7471 24.9653 40.8594C23.3257 42.3042 21.2993 43.2379 19.1356 43.5456C16.972 43.8533 14.7657 43.5214 12.7883 42.5909C10.8109 41.6604 9.14884 40.1719 8.00676 38.3087C6.86468 36.4455 6.29246 34.289 6.36058 32.1046C6.42869 29.9203 7.13417 27.8036 8.39012 26.0152C9.64607 24.2268 11.3977 22.8447 13.4292 22.0393C15.4607 21.2338 17.6834 21.04 19.8237 21.4819C21.9639 21.9238 23.9282 22.9819 25.4746 24.5261C26.8317 25.8845 28.5554 26.8179 30.4347 27.212C32.3141 27.606 34.2675 27.4437 36.056 26.7448C37.8445 26.0459 39.3905 24.8408 40.5047 23.277C41.6189 21.7131 42.2531 19.8584 42.3296 17.9397C42.4062 16.021 41.9217 14.1217 40.9355 12.4741C39.9493 10.8265 38.5042 9.50208 36.7771 8.663C35.0499 7.82392 33.1156 7.50653 31.2109 7.74969C29.3061 7.99285 27.5136 8.78601 26.0526 10.0321C25.9829 10.0919 25.9263 10.1654 25.8864 10.2481C25.8465 10.3308 25.824 10.4208 25.8205 10.5126C25.817 10.6044 25.8325 10.6959 25.866 10.7813C25.8995 10.8668 25.9504 10.9445 26.0153 11.0094L27.5746 12.4821L22.3293 12.9848L22.8153 7.80809L24.122 9.11542C24.2421 9.23544 24.4035 9.30509 24.5732 9.31017C24.7429 9.31525 24.9082 9.25537 25.0353 9.14275C27.2199 7.22621 30.0635 6.23293 32.9663 6.37237C35.8692 6.51182 38.6044 7.77308 40.5953 9.89021C42.5862 12.0073 43.6771 14.8149 43.6381 17.7208C43.599 20.6267 42.433 23.4039 40.3859 25.4668Z" fill="black"/>
<path d="M17.0001 38.3334C17.8975 38.3398 18.7719 38.0496 19.4874 37.508C20.2029 36.9663 20.7195 36.2035 20.9568 35.3381C21.0086 35.1427 21.0146 34.9379 20.9742 34.7398C20.9339 34.5417 20.8483 34.3556 20.7241 34.1961C20.5974 34.0306 20.434 33.8968 20.2469 33.8049C20.0598 33.7131 19.8539 33.6658 19.6455 33.6667H14.3548C14.1464 33.6658 13.9405 33.7131 13.7534 33.8049C13.5663 33.8968 13.4029 34.0306 13.2761 34.1961C13.152 34.3556 13.0664 34.5417 13.0261 34.7398C12.9857 34.9379 12.9917 35.1427 13.0435 35.3381C13.2808 36.2035 13.7974 36.9663 14.5129 37.508C15.2284 38.0496 16.1028 38.3398 17.0001 38.3334ZM19.6455 35.0001H19.6668C19.5051 35.5809 19.1559 36.0919 18.6736 36.4536C18.1913 36.8153 17.603 37.0075 17.0001 37.0001C16.3993 37.0097 15.8124 36.8181 15.3331 36.4556C14.8537 36.0932 14.5093 35.5808 14.3548 35.0001H19.6455ZM16.3335 29.6667C16.374 29.0046 16.1517 28.3532 15.7148 27.8539C15.278 27.3546 14.6618 27.0478 14.0001 27.0001C13.3385 27.0478 12.7223 27.3546 12.2855 27.8539C11.8486 28.3532 11.6263 29.0046 11.6668 29.6667C11.6263 30.3289 11.8486 30.9803 12.2855 31.4796C12.7223 31.9789 13.3385 32.2857 14.0001 32.3334C14.6618 32.2857 15.278 31.9789 15.7148 31.4796C16.1517 30.9803 16.374 30.3289 16.3335 29.6667ZM13.0001 29.6667C13.0001 28.9441 13.4581 28.3334 14.0001 28.3334C14.5421 28.3334 15.0001 28.9441 15.0001 29.6667C15.0001 30.3894 14.5421 31.0001 14.0001 31.0001C13.4581 31.0001 13.0001 30.3894 13.0001 29.6667ZM22.3335 29.6667C22.374 29.0046 22.1517 28.3532 21.7148 27.8539C21.278 27.3546 20.6618 27.0478 20.0001 27.0001C19.3385 27.0478 18.7223 27.3546 18.2855 27.8539C17.8486 28.3532 17.6263 29.0046 17.6668 29.6667C17.6263 30.3289 17.8486 30.9803 18.2855 31.4796C18.7223 31.9789 19.3385 32.2857 20.0001 32.3334C20.6618 32.2857 21.278 31.9789 21.7148 31.4796C22.1517 30.9803 22.374 30.3289 22.3335 29.6667ZM20.0001 31.0001C19.4581 31.0001 19.0001 30.3894 19.0001 29.6667C19.0001 28.9441 19.4581 28.3334 20.0001 28.3334C20.5421 28.3334 21.0001 28.9441 21.0001 29.6667C21.0001 30.3894 20.5421 31.0001 20.0001 31.0001ZM29.0435 22.6621C28.9917 22.8575 28.9857 23.0622 29.0261 23.2603C29.0664 23.4584 29.152 23.6445 29.2761 23.8041C29.4029 23.9695 29.5663 24.1034 29.7534 24.1952C29.9405 24.2871 30.1464 24.3344 30.3548 24.3334H35.6455C35.8539 24.3344 36.0598 24.2871 36.2469 24.1952C36.434 24.1034 36.5974 23.9695 36.7241 23.8041C36.8483 23.6445 36.9339 23.4584 36.9742 23.2603C37.0146 23.0622 37.0086 22.8575 36.9568 22.6621C36.7139 21.7997 36.1959 21.0404 35.4817 20.4995C34.7674 19.9587 33.896 19.666 33.0001 19.666C32.1042 19.666 31.2329 19.9587 30.5186 20.4995C29.8044 21.0404 29.2864 21.7997 29.0435 22.6621ZM35.6435 23.0001H30.3328C30.4945 22.4193 30.8437 21.9083 31.326 21.5465C31.8083 21.1848 32.3967 20.9927 32.9995 21.0001C33.6005 20.9903 34.1875 21.1819 34.667 21.5443C35.1465 21.9068 35.4909 22.4192 35.6455 23.0001H35.6435ZM30.0001 13.6667C29.3385 13.7145 28.7223 14.0213 28.2855 14.5206C27.8486 15.0198 27.6263 15.6712 27.6668 16.3334C27.6263 16.9956 27.8486 17.647 28.2855 18.1463C28.7223 18.6455 29.3385 18.9523 30.0001 19.0001C30.6618 18.9523 31.278 18.6455 31.7148 18.1463C32.1517 17.647 32.374 16.9956 32.3335 16.3334C32.374 15.6712 32.1517 15.0198 31.7148 14.5206C31.278 14.0213 30.6618 13.7145 30.0001 13.6667ZM30.0001 17.6667C29.4581 17.6667 29.0001 17.0561 29.0001 16.3334C29.0001 15.6107 29.4581 15.0001 30.0001 15.0001C30.5421 15.0001 31.0001 15.6107 31.0001 16.3334C31.0001 17.0561 30.5421 17.6667 30.0001 17.6667ZM38.3335 16.3334C38.374 15.6712 38.1517 15.0198 37.7148 14.5206C37.278 14.0213 36.6618 13.7145 36.0001 13.6667C35.3385 13.7145 34.7223 14.0213 34.2855 14.5206C33.8486 15.0198 33.6263 15.6712 33.6668 16.3334C33.6263 16.9956 33.8486 17.647 34.2855 18.1463C34.7223 18.6455 35.3385 18.9523 36.0001 19.0001C36.6618 18.9523 37.278 18.6455 37.7148 18.1463C38.1517 17.647 38.374 16.9956 38.3335 16.3334ZM35.0001 16.3334C35.0001 15.6107 35.4581 15.0001 36.0001 15.0001C36.5421 15.0001 37.0001 15.6107 37.0001 16.3334C37.0001 17.0561 36.5421 17.6667 36.0001 17.6667C35.4581 17.6667 35.0001 17.0561 35.0001 16.3334Z" fill="black"/>
</g>
<defs>
<clipPath id="clip0_4170_10308">
<rect width="40" height="40" fill="white" transform="translate(5 5)"/>
</clipPath>
</defs>
</svg>
