<svg width="29" height="29" viewBox="0 0 29 29" fill="none" xmlns="http://www.w3.org/2000/svg">
<path d="M0.5625 22.197C1.53577 21.6326 2.48116 21.0843 3.42825 20.5368C4.84929 19.7156 6.27456 18.9003 7.69223 18.0741C8.92572 17.3551 10.2445 17.1278 11.6115 17.5122C12.3846 17.7294 13.1111 18.1129 13.8554 18.4298C15.4412 19.1039 17.0279 19.7773 18.6094 20.4625C19.2777 20.7523 19.6148 21.3411 19.5624 22.0542C19.5168 22.6642 19.0555 23.2454 18.4286 23.3823C18.1076 23.4524 17.7578 23.4321 17.4267 23.4009C16.0647 23.2733 14.7045 23.1229 13.3426 22.9894C13.1686 22.9725 12.9793 22.9768 12.8137 23.0258C12.4564 23.1322 12.2536 23.4837 12.2908 23.8656C12.3263 24.2212 12.6177 24.5245 12.9988 24.5642C14.642 24.7349 16.2853 24.9191 17.9319 25.0551C19.1654 25.1573 20.371 24.3699 20.9167 23.2023C20.9784 23.0705 21.1161 22.9227 21.2488 22.8821C22.9275 22.3718 24.6105 21.8768 26.2951 21.3851C27.2295 21.1122 28.0591 21.6427 28.2002 22.5915C28.2856 23.1626 27.9611 23.7473 27.3681 24.0582C25.9149 24.8202 24.4592 25.5755 23.0044 26.3334C21.9128 26.902 20.8111 27.4494 19.7331 28.0425C18.1684 28.9026 16.5269 29.0817 14.7831 28.7826C12.763 28.4354 10.7303 28.1566 8.70352 27.8482C7.00874 27.5905 5.31481 27.3328 3.62003 27.0777C3.42064 27.0481 3.29223 26.9611 3.18662 26.7761C2.37556 25.3491 1.55013 23.9306 0.730625 22.5087C0.678244 22.4183 0.631776 22.3254 0.563343 22.197H0.5625Z" fill="#4FAAD4"/>
<path d="M21.5847 4.57999C21.545 7.53361 21.136 9.80289 19.9355 11.8719C18.7282 13.9537 16.9625 15.3333 14.6476 15.9982C14.487 16.0438 14.291 16.0447 14.1305 15.9982C10.9851 15.0866 9.00815 12.9669 7.94701 9.93637C7.30238 8.09544 7.08441 6.18606 7.23142 4.24374C7.30069 3.33299 7.43418 2.42646 7.56176 1.52077C7.64117 0.957255 8.01375 0.685212 8.57389 0.800957C10.474 1.19381 12.2938 0.979221 14.0587 0.174919C14.2555 0.0853647 14.5698 0.11409 14.7768 0.206179C16.0804 0.788284 17.4364 1.06371 18.8608 0.977532C19.2791 0.952186 19.6964 0.884598 20.1095 0.809405C20.739 0.69535 21.1183 0.931065 21.2053 1.56893C21.3692 2.76609 21.5078 3.96663 21.5847 4.58084V4.57999ZM13.5923 8.56602C13.4166 8.37677 13.2696 8.21203 13.1167 8.05404C12.9638 7.89521 12.8083 7.73637 12.6469 7.58599C12.2828 7.24467 11.8325 7.23115 11.5207 7.54628C11.2065 7.8631 11.225 8.30496 11.579 8.66825C12.0496 9.14981 12.5244 9.628 13.0052 10.1003C13.4031 10.4914 13.8204 10.4872 14.2217 10.091C14.7456 9.57309 15.2643 9.04928 15.7847 8.528C16.2604 8.0515 16.7445 7.58176 17.21 7.09513C17.6366 6.64904 17.4651 5.97147 16.894 5.80757C16.5637 5.71294 16.3035 5.84812 16.0728 6.08046C15.2651 6.89405 14.4541 7.70342 13.5923 8.56602Z" fill="#4FAAD4"/>
</svg>
