<svg width="61" height="61" viewBox="0 0 61 61" fill="none" xmlns="http://www.w3.org/2000/svg">
<path d="M30.5716 0.242218C32.0197 0.221942 33.3005 0.701821 34.4529 1.55343C35.639 2.43208 36.8337 3.30059 37.9996 4.20797C39.2618 5.19138 40.6744 5.65774 42.2728 5.71012C43.9592 5.76588 45.6607 5.80305 47.32 6.06665C50.1063 6.50935 51.7961 8.25313 52.4872 10.96C52.8825 12.5078 53.2408 14.0657 53.6007 15.6236C53.8947 16.8977 54.5452 17.9538 55.4931 18.8409C56.6185 19.8935 57.7557 20.9327 58.8658 22.0006C61.1317 24.1803 61.6133 26.9768 60.2159 29.7885C59.6448 30.9392 59.1091 32.1118 58.462 33.2186C57.4245 34.9911 57.2808 36.8532 57.6019 38.8318C57.83 40.2427 58.0209 41.6739 58.048 43.0983C58.1004 45.8103 56.7875 47.7653 54.3644 48.9363C52.962 49.6139 51.5122 50.1951 50.0709 50.7848C48.6549 51.3627 47.5464 52.2701 46.7354 53.5728C45.9784 54.7894 45.1724 55.9756 44.3816 57.1702C42.6091 59.8484 39.8616 60.8251 36.7813 59.8839C35.4126 59.4649 34.0355 59.0695 32.6685 58.642C31.2559 58.1993 29.8636 58.2043 28.4443 58.6521C26.8002 59.1725 25.1544 59.7285 23.4697 60.0816C20.7932 60.6409 18.5966 59.7166 16.9999 57.5099C16.0621 56.2139 15.2138 54.852 14.3504 53.5019C13.563 52.2718 12.5154 51.383 11.1568 50.8304C9.79154 50.2762 8.44485 49.673 7.08971 49.0917C4.1344 47.8228 2.65928 45.1226 3.13578 41.946C3.36051 40.4472 3.52272 38.9383 3.67986 37.4311C3.80997 36.1857 3.5599 35.0029 2.98709 33.886C2.2943 32.5376 1.60998 31.1859 0.932403 29.829C-0.498782 26.965 -0.00707259 24.1651 2.31966 21.9432C3.22027 21.0831 4.1006 20.1977 5.0536 19.3985C6.54223 18.1481 7.41414 16.5935 7.77066 14.6909C8.03257 13.2885 8.38065 11.8962 8.76591 10.5207C9.5229 7.82902 11.8969 6.03961 14.6985 5.93992C16.28 5.88416 17.8616 5.78447 19.4415 5.67802C20.7831 5.58677 21.9744 5.09676 23.0423 4.27894C24.2149 3.3817 25.4062 2.50812 26.5873 1.62102C27.7684 0.733924 29.0745 0.215183 30.5733 0.242218H30.5716ZM51.2638 30.2312C51.2553 18.7919 42.0599 9.60321 30.5885 9.5728C19.1289 9.54238 9.85577 18.7919 9.86253 30.243C9.86929 41.679 19.0681 50.871 30.5378 50.9031C41.9957 50.9352 51.2722 41.6824 51.2655 30.2312H51.2638Z" fill="#4FAAD4"/>
<path d="M30.5361 11.5431C40.8265 11.511 49.2716 19.9223 49.2902 30.2245C49.3105 40.4962 40.8586 48.9363 30.5598 48.933C20.2762 48.9279 11.8783 40.5621 11.8361 30.2819C11.7939 20.0119 20.2137 11.5769 30.5361 11.5448V11.5431ZM27.9559 31.7993C26.6396 30.4729 25.2778 29.0603 23.8685 27.6967C22.7516 26.617 21.0535 26.6491 19.9873 27.7034C18.8873 28.7933 18.8569 30.4779 19.9771 31.6168C22.0183 33.6918 24.078 35.7498 26.1581 37.7876C27.2969 38.9028 28.9461 38.8876 30.0765 37.7555C33.7719 34.0517 37.4538 30.3343 41.1255 26.6085C42.2559 25.4612 42.2424 23.7867 41.1526 22.6935C40.0661 21.6036 38.395 21.6002 37.2324 22.707C36.6512 23.2595 36.1071 23.8492 35.5343 24.4102C33.0301 26.8569 30.5209 29.2985 27.9559 31.7976V31.7993Z" fill="#4FAAD4"/>
</svg>
