<svg width="33" height="33" viewBox="0 0 33 33" fill="none" xmlns="http://www.w3.org/2000/svg">
<path d="M5.30298 32.4777C3.71719 30.9054 2.1314 29.3332 0.5625 27.7769C3.01511 25.3243 5.42718 22.9123 7.82487 20.5137C8.34615 21.0384 8.89277 21.5884 9.41489 22.1139C10.4304 21.1186 11.3902 20.1792 12.355 19.2338C9.70299 15.8391 9.02457 12.0863 10.2961 7.92369C10.4 8.01408 10.4701 8.06816 10.5318 8.13068C11.6656 9.26278 12.7952 10.3983 13.9332 11.5261C14.0861 11.6774 14.1545 11.8269 14.1571 12.0466C14.1925 15.3119 16.8572 18.3517 20.0955 18.8223C22.8422 19.2211 25.1098 18.3492 26.9009 16.232C26.9482 16.1754 26.9929 16.1171 27.036 16.0571C27.0605 16.0233 27.0774 15.9844 27.0833 15.9752C25.6454 14.5372 24.2159 13.1077 22.7695 11.6605C21.803 12.638 20.8213 13.6315 19.8303 14.6335C16.0985 10.8976 12.4082 7.20218 8.71704 3.50763C8.68832 3.5203 8.66044 3.53213 8.63171 3.5448V5.96024H6.65728V0.120605H12.5138V2.03674H10.144C13.3705 5.2607 16.6046 8.49227 19.8286 11.7137C20.7419 10.7979 21.7278 9.8094 22.7281 8.80656C24.5268 10.6061 26.2697 12.3516 28.0313 14.1139C28.8854 11.9934 28.5433 8.74488 26.2064 6.53305C24.0562 4.4978 20.1175 3.65548 16.8952 6.09289C15.8451 5.04273 14.7983 3.99511 13.7397 2.93482C14.5246 2.23781 15.4345 1.65655 16.423 1.20033C22.8287 -1.76089 30.3969 1.62867 32.4338 8.38413C32.6476 9.09381 32.7329 9.84319 32.8782 10.574C32.8968 10.6661 32.9188 10.7565 32.9399 10.8477V12.6819C32.8545 13.1888 32.7887 13.6991 32.6822 14.2018C31.1192 21.5943 22.9022 25.571 16.1501 22.1857C15.3103 21.7649 14.5389 21.2065 13.8005 20.752C12.8687 21.6585 11.9072 22.5946 10.9018 23.5729C11.4535 24.1204 12.0035 24.667 12.6034 25.2626C12.5164 25.3269 12.4124 25.3851 12.3313 25.4663C10.0798 27.7144 7.83079 29.9643 5.58263 32.2158C5.50321 32.2952 5.43816 32.389 5.36635 32.4769H5.30298V32.4777Z" fill="#4FAAD4"/>
<path d="M32.9374 28.5567H17.2383V26.5967H32.9374V28.5567Z" fill="#4FAAD4"/>
</svg>
