<svg width="29" height="30" viewBox="0 0 29 30" fill="none" xmlns="http://www.w3.org/2000/svg">
<path d="M11.3707 15.8897C12.2375 14.9789 12.8197 13.9389 13.0934 12.7257C13.7701 9.72986 12.2646 6.62671 9.47487 5.31719C9.27295 5.22256 9.18171 5.12287 9.20198 4.89729C9.22226 4.66749 9.20199 4.43347 9.2079 4.20198C9.21635 3.85981 9.3963 3.66803 9.7334 3.66465C10.3873 3.65789 11.0421 3.66296 11.7188 3.66296C11.734 3.739 11.7467 3.80743 11.761 3.87502C11.9376 4.70889 12.513 5.17947 13.3764 5.18032C16.3021 5.18285 19.2279 5.18116 22.1536 5.18032C22.3015 5.18032 22.451 5.18286 22.5955 5.15835C23.344 5.03163 23.7386 4.59399 23.9371 3.66465C24.6164 3.66465 25.3024 3.65536 25.9867 3.66972C26.2512 3.67563 26.4049 3.85052 26.4429 4.11158C26.4565 4.20451 26.4472 4.30082 26.4472 4.39545C26.4472 11.8361 26.4472 19.2767 26.4472 26.7174C26.4472 27.3088 26.3137 27.4439 25.7274 27.4439C20.4571 27.4439 15.1861 27.4439 9.91589 27.4439C9.34646 27.4439 9.20705 27.3045 9.20705 26.7385C9.20705 25.6427 9.20705 24.5461 9.20705 23.4503V23.125C9.73931 23.5475 10.0232 23.4706 10.2665 22.8631C10.4971 22.2878 10.7346 21.7141 10.9542 21.1346C11.0201 20.9597 11.1063 20.9191 11.2837 20.9504C12.0415 21.0822 12.8028 21.1937 13.5606 21.3272C13.8124 21.372 14.0244 21.35 14.1799 21.1337C14.3514 20.8955 14.2508 20.6809 14.119 20.4621C13.2362 19.0021 12.3575 17.5397 11.478 16.0781C11.4459 16.024 11.4155 15.9683 11.3707 15.8897ZM18.8545 9.2069H25.4097V8.23194H18.8545V9.2069ZM18.8671 9.74V10.7268H25.4105V9.74H18.8671ZM18.8629 13.2901V14.265H25.419V13.2901H18.8629ZM25.4207 14.8159H18.8654V15.7917H25.4207V14.8159ZM18.8646 18.3491V19.3359H25.4173V18.3491H18.8646ZM18.8553 20.8465H25.4105V19.8707H18.8553V20.8465ZM18.8595 23.4123V24.3898H25.4114V23.4123H18.8595ZM18.8561 24.9271V25.9114H25.4147V24.9271H18.8561ZM15.6322 9.4519C15.464 9.25759 15.328 9.0996 15.17 8.91711C14.909 9.13424 14.6623 9.34038 14.4038 9.55498C14.6927 9.89883 14.9546 10.2275 15.2342 10.5401C15.4826 10.8163 15.7843 10.8231 16.025 10.5426C16.586 9.88954 17.131 9.2238 17.6995 8.54284C17.4385 8.32403 17.1918 8.11788 16.9341 7.9016C16.4897 8.43048 16.0707 8.92894 15.6322 9.45106V9.4519ZM16.9341 12.9631C16.4863 13.4954 16.0681 13.993 15.6356 14.5075C15.4733 14.3267 15.3289 14.1654 15.1641 13.982C14.9039 14.1991 14.6572 14.4053 14.4038 14.6173C14.6952 14.9646 14.958 15.2941 15.2402 15.6067C15.4801 15.8736 15.7783 15.8863 16.0081 15.621C16.5776 14.9637 17.1284 14.2895 17.7004 13.6052C17.4402 13.3872 17.2002 13.187 16.9341 12.964V12.9631ZM14.4054 19.678C14.6969 20.0261 14.9529 20.3472 15.2266 20.653C15.486 20.9428 15.7885 20.9445 16.0402 20.6496C16.5936 20.0016 17.1343 19.3426 17.7004 18.6634C17.4469 18.4505 17.2002 18.2443 16.9358 18.0221C16.4922 18.5493 16.0698 19.052 15.6347 19.5699C15.4674 19.379 15.3246 19.2159 15.1692 19.0385C14.9056 19.259 14.6657 19.4601 14.4063 19.6772L14.4054 19.678ZM14.4038 24.7379C14.7011 25.091 14.9639 25.4205 15.2461 25.7323C15.4691 25.9798 15.7606 26.0128 15.9676 25.7779C16.5556 25.1104 17.1183 24.421 17.7046 23.724C17.4309 23.4968 17.185 23.2932 16.9333 23.0845C16.4838 23.6193 16.0664 24.1161 15.6347 24.6289C15.4691 24.4413 15.3263 24.28 15.1684 24.1008C14.9081 24.3171 14.6682 24.5174 14.4046 24.737L14.4038 24.7379Z" fill="#4FAAD4"/>
<path d="M7.24025 19.4136C7.54693 19.9746 7.85868 20.5322 8.15438 21.0983C8.20338 21.192 8.18902 21.3238 8.18986 21.4379C8.19155 23.2087 8.18986 24.9804 8.19155 26.7512C8.19155 27.8368 8.81337 28.4578 9.89985 28.4578C15.1827 28.4578 20.4648 28.4578 25.7476 28.4578C26.8375 28.4578 27.4644 27.8377 27.4644 26.7588C27.4644 19.2844 27.4644 11.8099 27.4644 4.3355C27.4644 3.27267 26.8358 2.65002 25.7688 2.64748C25.1672 2.64664 24.5657 2.64748 23.9397 2.64748V1.63788C24.3029 1.63788 24.6696 1.63788 25.0354 1.63788C25.6801 1.63788 26.3247 1.63366 26.9685 1.63873C27.8133 1.64548 28.4757 2.30025 28.4757 3.1451C28.4782 11.4205 28.4782 19.6958 28.4757 27.972C28.4757 28.7983 27.8125 29.4657 26.9887 29.4657C20.8821 29.4691 14.7755 29.4691 8.6689 29.4657C7.88403 29.4657 7.18955 28.827 7.18702 28.0675C7.17435 25.1899 7.18195 22.3123 7.18195 19.4348C7.20223 19.428 7.22166 19.4212 7.24194 19.4136H7.24025Z" fill="#4FAAD4"/>
<path d="M17.8081 4.16661C16.3398 4.16661 14.8714 4.16661 13.4022 4.16661C12.9198 4.16661 12.7584 4.00525 12.7584 3.52283C12.7576 2.60532 12.7576 1.68865 12.7584 0.77114C12.7584 0.285348 12.919 0.120605 13.3955 0.120605C16.3533 0.120605 19.312 0.120605 22.2698 0.120605C22.7303 0.120605 22.8975 0.287885 22.8984 0.747486C22.9001 1.67514 22.9001 2.60279 22.8984 3.53044C22.8984 4.0044 22.732 4.16493 22.2453 4.16577C20.766 4.16577 19.2875 4.16577 17.8081 4.16577V4.16661Z" fill="#4FAAD4"/>
<path d="M6.68501 5.68653C9.76873 5.68822 12.2509 8.19321 12.2475 11.2989C12.2442 14.3902 9.77464 16.8234 6.64699 16.8166C3.56074 16.8099 1.08953 14.3454 1.09376 11.2778C1.09798 8.18814 3.60129 5.68399 6.68501 5.68653ZM2.1059 11.2414C2.09998 13.7321 4.15636 15.7969 6.65291 15.807C9.14776 15.8172 11.2202 13.7684 11.2354 11.2769C11.2506 8.77531 9.18155 6.69781 6.67234 6.69697C4.17494 6.69612 2.11096 8.74997 2.1059 11.2414Z" fill="#4FAAD4"/>
<path d="M10.621 16.6014C11.3163 17.7547 12.0302 18.9391 12.7796 20.1811C12.26 20.1008 11.7996 20.0298 11.3391 19.958C11.2039 19.9369 11.0688 19.915 10.9344 19.8905C10.545 19.8203 10.3726 19.9107 10.2214 20.2799C10.0355 20.7345 9.85471 21.1907 9.64518 21.7145C8.91269 20.3754 8.21231 19.0937 7.51953 17.8273C8.07207 17.6676 8.61869 17.5527 9.13152 17.35C9.63589 17.1514 10.1065 16.8642 10.6218 16.6006L10.621 16.6014Z" fill="#4FAAD4"/>
<path d="M8.19185 4.84941C7.84461 4.79534 7.53371 4.74719 7.20253 4.69565C7.20253 4.07891 7.1417 3.45456 7.21858 2.84711C7.31067 2.1256 7.96712 1.64234 8.70468 1.63896C9.70583 1.63559 10.7061 1.63812 11.7242 1.63812V2.64772C11.4902 2.64772 11.2519 2.64772 11.0145 2.64772C10.5921 2.64772 10.1697 2.64181 9.74723 2.64941C8.85929 2.66631 8.21551 3.30755 8.19354 4.18958C8.18847 4.39911 8.19354 4.60947 8.19354 4.84857L8.19185 4.84941Z" fill="#4FAAD4"/>
<path d="M10.2218 11.2651C10.2184 13.2303 8.62586 14.8 6.64383 14.7924C4.69475 14.7856 3.12163 13.1965 3.12501 11.2373C3.12838 9.27465 4.72178 7.70322 6.70297 7.70998C8.65374 7.71674 10.2252 9.30422 10.2218 11.2643V11.2651ZM4.20051 10.9753C4.51564 11.6048 4.81472 12.2063 5.11717 12.8061C5.40443 13.3764 5.71026 13.428 6.16057 12.9785C7.22847 11.9148 8.29467 10.8503 9.36088 9.78495C9.42424 9.72158 9.48001 9.64977 9.51127 9.61344C9.27724 9.36252 9.06518 9.13357 8.80074 8.8497C7.79114 9.86521 6.79337 10.8681 5.78123 11.8861C5.54889 11.429 5.32332 10.9838 5.09352 10.531C4.78177 10.6864 4.50972 10.8216 4.20135 10.9753H4.20051Z" fill="#4FAAD4"/>
</svg>
