<svg width="30" height="24" viewBox="0 0 30 24" fill="none" xmlns="http://www.w3.org/2000/svg">
<path d="M14.8951 19.2588C13.8678 19.2233 12.8844 19.0298 11.9314 18.6589C11.8173 18.6142 11.6416 18.6311 11.5318 18.6894C10.9361 19.0028 10.3515 19.3391 9.76264 19.666C9.50581 19.8088 9.23714 19.9245 8.96848 19.7091C8.70826 19.5004 8.67954 19.2157 8.74966 18.9048C8.89075 18.2779 9.03015 17.651 9.15181 17.0208C9.17378 16.9084 9.14167 16.7445 9.06986 16.6626C7.56855 14.9509 6.97378 12.9452 7.12416 10.6962C7.35312 7.27199 10.0583 4.29387 13.4411 3.73711C16.8442 3.17698 20.0268 4.60647 21.6438 7.45025C24.1463 11.8519 22.0494 17.8217 16.5823 19.0383C16.0315 19.1608 15.4587 19.187 14.896 19.2571L14.8951 19.2588ZM18.8448 12.8717C19.6593 12.8742 20.3166 12.2288 20.3233 11.4194C20.3292 10.621 19.6618 9.94764 18.8609 9.94511C18.0498 9.94257 17.3959 10.5914 17.3917 11.4033C17.3875 12.2203 18.0287 12.8683 18.8448 12.8708V12.8717ZM14.8892 12.8717C15.707 12.8717 16.3517 12.2304 16.3517 11.4135C16.3517 10.5999 15.7037 9.94595 14.8943 9.94511C14.0841 9.94426 13.4327 10.5956 13.4318 11.4092C13.4318 12.2296 14.0706 12.8708 14.8892 12.8717ZM10.9243 12.8717C11.7464 12.8734 12.3859 12.2397 12.3901 11.4185C12.3944 10.6058 11.7464 9.94849 10.9378 9.94511C10.1335 9.94257 9.46779 10.6016 9.46187 11.405C9.4568 12.2102 10.1141 12.87 10.9243 12.8717Z" fill="#4FAAD4"/>
<path d="M4.07555 8.21739C4.44391 7.00418 4.97617 5.86109 5.73147 4.83291C7.71604 2.13359 10.3672 0.559628 13.6985 0.189582C19.0515 -0.404351 24.0124 2.89143 25.643 7.98844C25.676 8.08982 25.7985 8.23176 25.8863 8.23682C27.4442 8.33398 28.3406 9.26586 28.8129 10.6438C29.5032 12.658 29.3317 14.6155 28.1945 16.4395C27.7062 17.2219 27.0429 17.8521 26.0781 17.9375C25.6143 17.9788 25.126 17.8403 24.6604 17.7313C24.3833 17.6663 24.2406 17.7102 24.0691 17.9501C22.5111 20.1298 20.4353 21.5796 17.8577 22.3045C17.7673 22.3299 17.6777 22.3611 17.5924 22.3881C17.5814 22.4143 17.5679 22.4329 17.567 22.4532C17.5028 23.511 17.17 23.8269 16.1173 23.8269C15.2107 23.8269 14.3051 23.8303 13.3985 23.8252C12.7049 23.8219 12.2504 23.3766 12.2293 22.6864C12.2225 22.465 12.2216 22.2428 12.2335 22.0215C12.2647 21.4368 12.7041 20.9874 13.2887 20.9688C13.8463 20.9502 14.4056 20.9671 14.964 20.9595C18.575 20.913 21.2582 19.258 23.1659 16.2334C23.7869 15.2483 23.9956 14.1542 24.1333 13.0297C24.2 12.4864 24.2862 11.9449 24.3791 11.405C24.5346 10.5036 24.3495 9.63337 24.0868 8.79105C22.9268 5.072 20.426 2.76892 16.6242 1.98828C11.5948 0.955865 6.50874 4.44681 5.51096 9.48383C5.28792 10.6117 5.46112 11.6813 5.62418 12.772C5.80075 13.9497 5.99084 15.1249 6.15474 16.3043C6.27302 17.1568 6.03224 17.5201 5.19753 17.733C4.76327 17.8437 4.30705 17.9611 3.86772 17.94C2.70436 17.8851 1.96426 17.1374 1.44214 16.192C0.413955 14.3325 0.282158 12.3766 1.07294 10.403C1.51058 9.31064 2.33262 8.57308 3.50105 8.28245C3.67256 8.2402 3.8542 8.2402 4.0764 8.21655L4.07555 8.21739Z" fill="#4FAAD4"/>
</svg>
