<svg width="29" height="29" viewBox="0 0 29 29" fill="none" xmlns="http://www.w3.org/2000/svg">
<path d="M5.86527 22.6467C1.43992 17.8589 1.49062 10.3777 6.19899 5.71667C10.9606 1.00237 18.4131 1.13163 22.9972 5.40745C22.9195 5.48855 22.8443 5.57219 22.7649 5.65161C21.5855 6.83103 20.4052 8.01045 19.2258 9.18986C18.8254 9.59117 18.8313 9.77282 19.2098 10.2062C20.8048 12.0303 21.2594 14.1204 20.4424 16.3897C19.6237 18.6632 17.9264 20.0023 15.5372 20.3504C13.6971 20.6182 12.0513 20.0817 10.6539 18.8381C10.1631 18.4013 10.0177 18.3988 9.54715 18.8694C8.3897 20.0268 7.23225 21.1834 6.07818 22.3434C5.99707 22.4254 5.94385 22.5343 5.86697 22.6459L5.86527 22.6467ZM14.2589 9.49739C14.2589 10.3625 14.2547 11.2285 14.2623 12.0936C14.264 12.3015 14.2344 12.4273 14.0004 12.5127C13.4816 12.7011 13.1116 13.0787 12.9156 13.5958C12.8387 13.7985 12.7416 13.8594 12.5286 13.8568C11.4624 13.845 10.3971 13.8416 9.33087 13.8611C9.15092 13.8644 8.92618 13.9481 8.80959 14.074C8.7175 14.1737 8.70821 14.4111 8.7513 14.5615C8.81973 14.8014 9.047 14.8673 9.28609 14.8673C10.3523 14.8673 11.4177 14.8732 12.4839 14.8622C12.7086 14.8597 12.8311 14.9002 12.9249 15.1385C13.2502 15.9639 14.1406 16.4843 14.9669 16.3737C15.9621 16.2402 16.6532 15.5466 16.7816 14.553C16.8889 13.7225 16.3677 12.8379 15.5406 12.5144C15.3167 12.4265 15.2702 12.3158 15.271 12.1012C15.2778 10.3701 15.2761 8.63986 15.2744 6.90875C15.2744 6.49478 15.07 6.24217 14.7548 6.25146C14.449 6.26075 14.2606 6.50323 14.2598 6.90115C14.2572 7.76629 14.2598 8.63226 14.2598 9.49739H14.2589ZM19.8366 14.3012C19.8105 13.137 19.4311 12.0438 18.6395 11.1026C18.5381 10.9818 18.4308 10.8627 18.3117 10.7605C18.0971 10.5746 17.8673 10.5822 17.6518 10.7605C17.4499 10.9286 17.4305 11.2192 17.5995 11.4448C17.6561 11.52 17.7296 11.5825 17.7921 11.6543C18.6758 12.6605 19.0357 13.829 18.7755 15.1436C18.4671 16.6998 17.5344 17.7668 16.0247 18.2467C14.5031 18.7308 13.1336 18.3743 11.9592 17.2878C11.6838 17.0327 11.3898 17.0115 11.1786 17.2303C10.9572 17.4601 10.9851 17.7364 11.2639 18.0051C12.2118 18.9141 13.3515 19.3881 14.656 19.4211C17.4871 19.4937 19.8172 17.2042 19.8358 14.3012H19.8366ZM15.2727 3.72027C15.2727 3.72027 15.2719 3.72027 15.271 3.72027C15.271 3.54201 15.2846 3.36205 15.2677 3.18548C15.2415 2.9109 15.021 2.70729 14.7726 2.70391C14.5225 2.70053 14.2851 2.89907 14.269 3.17365C14.2479 3.52933 14.2488 3.88756 14.2674 4.24408C14.2817 4.51866 14.5115 4.72227 14.7608 4.72565C15.021 4.72988 15.2457 4.51613 15.2702 4.22381C15.2837 4.05737 15.2727 3.8884 15.2727 3.72027ZM4.1291 13.8535C3.96097 13.8535 3.79285 13.8433 3.62557 13.856C3.32818 13.8771 3.11612 14.0892 3.11189 14.3528C3.10767 14.6138 3.31973 14.847 3.61205 14.8614C3.94745 14.8783 4.28455 14.8774 4.61911 14.8631C4.91566 14.8504 5.12856 14.629 5.13279 14.3671C5.13701 14.0926 4.91566 13.8737 4.60137 13.8552C4.44423 13.8459 4.28624 13.8535 4.1291 13.8543V13.8535ZM10.2999 5.58233C9.99915 5.11682 9.7533 4.68003 9.43986 4.29731C9.36805 4.20945 9.01827 4.24324 8.88394 4.34124C8.76651 4.42657 8.68371 4.71636 8.73947 4.85407C8.88732 5.21989 9.1036 5.56121 9.31989 5.89493C9.44915 6.096 9.68909 6.13825 9.88256 6.03349C10.0372 5.94985 10.1377 5.76482 10.3008 5.58233H10.2999ZM20.8792 4.61751C20.7719 4.50599 20.6654 4.32181 20.5066 4.24493C20.2929 4.14186 20.0622 4.21451 19.927 4.43164C19.7386 4.73579 19.557 5.04585 19.3931 5.36436C19.2647 5.6136 19.3576 5.89747 19.595 6.01321C19.8417 6.13318 20.0833 6.10192 20.2388 5.86536C20.4399 5.55699 20.6122 5.23003 20.7913 4.90814C20.826 4.84562 20.8344 4.76874 20.8792 4.61835V4.61751ZM6.47526 9.19071C6.43978 9.13495 6.39246 8.97443 6.28601 8.90262C5.97173 8.69309 5.64139 8.50469 5.30345 8.33402C5.04577 8.20307 4.82188 8.30277 4.68586 8.54186C4.54815 8.78349 4.59039 9.02934 4.82357 9.1831C5.1387 9.39094 5.46904 9.58356 5.81036 9.74324C6.1407 9.89785 6.48371 9.64186 6.47526 9.19071ZM5.11505 20.5363C5.58056 20.2304 6.01651 19.9795 6.40091 19.6652C6.48624 19.5951 6.44654 19.2766 6.36628 19.1237C6.26405 18.931 6.03509 18.8516 5.81458 18.9682C5.47073 19.1499 5.12772 19.3391 4.8016 19.5512C4.60137 19.6813 4.55153 19.9187 4.65967 20.1138C4.74584 20.2693 4.92918 20.3707 5.11505 20.5363Z" fill="#4FAAD4"/>
<path d="M6.5549 26.1483C6.06742 25.6583 5.60782 25.197 5.17188 24.7585C6.81343 23.1153 8.4761 21.4526 10.1624 19.7646C11.7786 21.0851 13.6686 21.6765 15.8001 21.3706C17.4324 21.1358 18.8121 20.3923 19.9518 19.1977C22.058 16.9909 22.8116 12.9238 20.1723 9.72768C21.8375 8.06416 23.5018 6.40233 25.1417 4.76416C25.587 5.21278 26.0516 5.67998 26.5391 6.17C26.5045 6.20633 26.4276 6.28912 26.3482 6.36938C25.6469 7.07146 24.9482 7.77692 24.2403 8.47308C23.9944 8.71555 23.9707 8.95126 24.1144 9.26808C24.4219 9.94735 24.699 10.6418 24.9702 11.3371C25.1147 11.7072 25.2431 11.8246 25.6427 11.8255C26.6244 11.8271 27.607 11.8255 28.5887 11.8255C28.7019 11.8255 28.8151 11.8255 28.9444 11.8255V16.8921H28.609C27.6273 16.8921 26.6447 16.8912 25.663 16.8921C25.238 16.8921 25.1172 17.0027 24.9668 17.3914C24.7058 18.0681 24.432 18.7406 24.1389 19.403C23.9538 19.822 23.953 19.9513 24.2724 20.2715C24.966 20.9668 25.6613 21.6604 26.3549 22.3549C26.4284 22.4284 26.4977 22.5061 26.5416 22.5526C25.3479 23.7472 24.1651 24.93 22.9096 26.1863C22.8403 26.0917 22.7567 25.9413 22.6401 25.8222C21.9879 25.1598 21.3289 24.505 20.6707 23.8494C20.3717 23.5512 20.2314 23.5461 19.8563 23.7083C19.1618 24.0091 18.4614 24.2964 17.756 24.5684C17.4493 24.6867 17.2972 24.8709 17.2989 25.2029C17.3048 26.3012 17.3015 27.3987 17.3015 28.5232H12.234C12.234 28.4184 12.234 28.3069 12.234 28.1954C12.234 27.2136 12.2349 26.2311 12.234 25.2494C12.234 24.8261 12.1242 24.7078 11.7322 24.5557C11.0462 24.2896 10.3652 24.0091 9.691 23.7143C9.30828 23.547 9.16888 23.5487 8.87487 23.8418C8.17195 24.5422 7.47073 25.2451 6.76865 25.9464C6.69515 26.0199 6.61742 26.0883 6.55575 26.1458L6.5549 26.1483ZM24.3982 23.3459C24.1693 23.1085 23.9462 22.8787 23.7638 22.6894C23.5247 22.904 23.2873 23.1178 23.0735 23.3104C23.2974 23.5512 23.5103 23.7802 23.7291 24.0159C23.9665 23.7785 24.1879 23.5571 24.3982 23.3467V23.3459ZM26.9463 14.845H27.923V13.8692H26.9463V14.845ZM14.2752 26.5369V27.5229H15.2552V26.5369H14.2752Z" fill="#4FAAD4"/>
</svg>
