<svg width="20" height="20" viewBox="0 0 20 20" fill="none" xmlns="http://www.w3.org/2000/svg">
<path d="M18.3337 13.4915C18.3337 16.5248 16.5253 18.3332 13.492 18.3332H12.5003C12.042 18.3332 11.667 17.9582 11.667 17.4998V12.6915C11.667 12.4665 11.8503 12.2748 12.0753 12.2748L13.542 12.2498C13.6587 12.2415 13.7587 12.1582 13.7837 12.0415L14.0753 10.4498C14.1003 10.2998 13.9837 10.1582 13.8253 10.1582L12.0503 10.1832C11.817 10.1832 11.6337 9.99985 11.6253 9.77485L11.592 7.73317C11.592 7.59984 11.7003 7.48318 11.842 7.48318L13.842 7.44984C13.9836 7.44984 14.092 7.34152 14.092 7.19985L14.0587 5.19983C14.0587 5.05816 13.9503 4.94984 13.8087 4.94984L11.5587 4.98318C10.1753 5.00818 9.07534 6.1415 9.10034 7.52484L9.14199 9.8165C9.15033 10.0498 8.967 10.2332 8.73367 10.2415L7.73366 10.2582C7.59199 10.2582 7.48367 10.3665 7.48367 10.5082L7.50867 12.0915C7.50867 12.2332 7.61699 12.3415 7.75866 12.3415L8.75867 12.3248C8.992 12.3248 9.17532 12.5082 9.18365 12.7332L9.25865 17.4832C9.26698 17.9498 8.89198 18.3332 8.42531 18.3332H6.50866C3.47532 18.3332 1.66699 16.5248 1.66699 13.4832V6.50817C1.66699 3.47484 3.47532 1.6665 6.50866 1.6665H13.492C16.5253 1.6665 18.3337 3.47484 18.3337 6.50817V13.4915Z" fill="white"/>
</svg>
