<svg width="20" height="15" viewBox="0 0 20 15" fill="none" xmlns="http://www.w3.org/2000/svg">
<g clip-path="url(#clip0_4118_8304)">
<path d="M4.54547 14.9264V7.23905L2.14898 5.05799L0 3.84766V13.5698C0 14.3204 0.611328 14.9264 1.36367 14.9264H4.54547Z" fill="#2FF3E0"/>
<path d="M15.4541 14.9263H18.6359C19.3905 14.9263 19.9996 14.318 19.9996 13.5697V3.84766L17.5655 5.23395L15.4541 7.23898V14.9263Z" fill="#34A853"/>
<path d="M4.54582 7.2388L4.21973 4.23514L4.54582 1.36035L10.0004 5.43009L15.4549 1.36035L15.8196 4.07994L15.4549 7.2388L10.0004 11.3085L4.54582 7.2388Z" fill="#EA4335"/>
<path d="M15.4541 1.36039V7.23884L19.9996 3.84744V2.03865C19.9996 0.361064 18.0746 -0.595283 16.7269 0.410805L15.4541 1.36039Z" fill="#F8D210"/>
<path d="M0 3.84747L2.09055 5.40732L4.54547 7.23887V1.36043L3.27266 0.410841C1.92266 -0.595325 0 0.3611 0 2.03861V3.84739V3.84747Z" fill="#C5221F"/>
</g>
<defs>
<clipPath id="clip0_4118_8304">
<rect width="20" height="15" fill="white"/>
</clipPath>
</defs>
</svg>
