<svg width="20" height="20" viewBox="0 0 20 20" fill="none" xmlns="http://www.w3.org/2000/svg">
<path d="M13.492 1.6665H6.50866C3.47533 1.6665 1.66699 3.47484 1.66699 6.50817V13.4832C1.66699 16.5248 3.47533 18.3332 6.50866 18.3332H13.4837C16.517 18.3332 18.3253 16.5248 18.3253 13.4915V6.50817C18.3337 3.47484 16.5253 1.6665 13.492 1.6665ZM10.0003 13.2332C8.21699 13.2332 6.76699 11.7832 6.76699 9.99984C6.76699 8.2165 8.21699 6.7665 10.0003 6.7665C11.7837 6.7665 13.2337 8.2165 13.2337 9.99984C13.2337 11.7832 11.7837 13.2332 10.0003 13.2332ZM14.9337 5.73317C14.892 5.83317 14.8337 5.92484 14.7587 6.00817C14.6753 6.08317 14.5837 6.1415 14.4837 6.18317C14.3837 6.22484 14.2753 6.24984 14.167 6.24984C13.942 6.24984 13.7337 6.1665 13.5753 6.00817C13.5003 5.92484 13.442 5.83317 13.4003 5.73317C13.3587 5.63317 13.3337 5.52484 13.3337 5.4165C13.3337 5.30817 13.3587 5.19984 13.4003 5.09984C13.442 4.9915 13.5003 4.90817 13.5753 4.82484C13.767 4.63317 14.0587 4.5415 14.3253 4.59984C14.3837 4.60817 14.4337 4.62484 14.4837 4.64984C14.5337 4.6665 14.5837 4.6915 14.6337 4.72484C14.6753 4.74984 14.717 4.7915 14.7587 4.82484C14.8337 4.90817 14.892 4.9915 14.9337 5.09984C14.9753 5.19984 15.0003 5.30817 15.0003 5.4165C15.0003 5.52484 14.9753 5.63317 14.9337 5.73317Z" fill="white" fill-opacity="0.8"/>
</svg>
